ISO-10303-21;
HEADER;
FILE_DESCRIPTION (( 'STEP AP214' ),
    '1' );
FILE_NAME ('p64.STEP',
    '2026-09-07T15:39:11',
    ( '' ),
    ( '' ),
    'SwSTEP 2.0',
    'SolidWorks 2025',
    '' );
FILE_SCHEMA (( 'AUTOMOTIVE_DESIGN' ));
ENDSEC;

DATA;
#1 = AXIS2_PLACEMENT_3D ( 'NONE', #227, #35, #104 ) ;
#2 = EDGE_LOOP ( 'NONE', ( #215, #41, #154, #200, #135, #27 ) ) ;
#3 = EDGE_LOOP ( 'NONE', ( #179, #119, #61, #192 ) ) ;
#4 = VERTEX_POINT ( 'NONE', #160 ) ;
#5 = CARTESIAN_POINT ( 'NONE',  ( -64.00000000000000000, 14.50000000000000000, -63.99999999999998579 ) ) ;
#6 = CARTESIAN_POINT ( 'NONE',  ( 0.000000000000000000, 14.50000000000000000, 0.000000000000000000 ) ) ;
#7 = ADVANCED_FACE ( 'NONE', ( #9 ), #241, .F. ) ;
#8 = DIRECTION ( 'NONE',  ( -0.000000000000000000, -1.000000000000000000, -0.000000000000000000 ) ) ;
#9 = FACE_OUTER_BOUND ( 'NONE', #235, .T. ) ;
#10 = DIRECTION ( 'NONE',  ( -0.000000000000000000, 1.000000000000000000, -0.000000000000000000 ) ) ;
#11 = AXIS2_PLACEMENT_3D ( 'NONE', #6, #85, #243 ) ;
#12 = LINE ( 'NONE', #51, #63 ) ;
#13 = CARTESIAN_POINT ( 'NONE',  ( -63.99999999999998579, 14.50000000000000000, 52.00000000000002132 ) ) ;
#14 = CARTESIAN_POINT ( 'NONE',  ( -64.00000000000000000, 1.599999999999990319, -63.99999999999998579 ) ) ;
#15 = PRESENTATION_LAYER_ASSIGNMENT (  '', '', ( #26 ) ) ;
#16 = CARTESIAN_POINT ( 'NONE',  ( 0.000000000000000000, 1.600000000000000089, 0.000000000000000000 ) ) ;
#17 = EDGE_CURVE ( 'NONE', #238, #59, #138, .T. ) ;
#18 =( GEOMETRIC_REPRESENTATION_CONTEXT ( 3 ) GLOBAL_UNCERTAINTY_ASSIGNED_CONTEXT ( ( #97 ) ) GLOBAL_UNIT_ASSIGNED_CONTEXT ( ( #42, #197, #73 ) ) REPRESENTATION_CONTEXT ( 'NONE', 'WORKASPACE' ) );
#19 = VECTOR ( 'NONE', #118, 1000.000000000000000 ) ;
#20 = CARTESIAN_POINT ( 'NONE',  ( 63.99999999999998579, 14.50000000000000000, -64.00000000000001421 ) ) ;
#21 = VECTOR ( 'NONE', #96, 1000.000000000000000 ) ;
#22 = DIRECTION ( 'NONE',  ( 1.000000000000000000, -0.000000000000000000, -2.168404344971008868E-16 ) ) ;
#23 = ADVANCED_FACE ( 'NONE', ( #120 ), #45, .F. ) ;
#24 = ORIENTED_EDGE ( 'NONE', *, *, #147, .F. ) ;
#25 = LINE ( 'NONE', #68, #186 ) ;
#26 = STYLED_ITEM ( 'NONE', ( #109 ), #155 ) ;
#27 = ORIENTED_EDGE ( 'NONE', *, *, #222, .F. ) ;
#28 = CARTESIAN_POINT ( 'NONE',  ( 64.00000000000001421, 14.50000000000000000, 63.99999999999998579 ) ) ;
#29 = ORIENTED_EDGE ( 'NONE', *, *, #140, .T. ) ;
#30 = LINE ( 'NONE', #169, #131 ) ;
#31 = CARTESIAN_POINT ( 'NONE',  ( -63.99999999999998579, -172.7425830535134423, 52.00000000000002132 ) ) ;
#32 = CLOSED_SHELL ( 'NONE', ( #213, #194, #151, #23, #7, #40, #193, #60 ) ) ;
#33 = CARTESIAN_POINT ( 'NONE',  ( -63.99999999999998579, 0.000000000000000000, 64.00000000000001421 ) ) ;
#34 = DIRECTION ( 'NONE',  ( -2.168404344971008868E-16, -0.000000000000000000, -1.000000000000000000 ) ) ;
#35 = DIRECTION ( 'NONE',  ( -2.168404344971009115E-16, 0.000000000000000000, -1.000000000000000000 ) ) ;
#36 = EDGE_CURVE ( 'NONE', #105, #77, #239, .T. ) ;
#37 = VECTOR ( 'NONE', #208, 1000.000000000000000 ) ;
#38 = FACE_OUTER_BOUND ( 'NONE', #82, .T. ) ;
#39 = EDGE_LOOP ( 'NONE', ( #58, #178, #217, #182 ) ) ;
#40 = ADVANCED_FACE ( 'NONE', ( #159 ), #139, .T. ) ;
#41 = ORIENTED_EDGE ( 'NONE', *, *, #99, .F. ) ;
#42 =( LENGTH_UNIT ( ) NAMED_UNIT ( * ) SI_UNIT ( .MILLI., .METRE. ) );
#43 = VECTOR ( 'NONE', #185, 1000.000000000000000 ) ;
#44 = VERTEX_POINT ( 'NONE', #137 ) ;
#45 = PLANE ( 'NONE',  #174 ) ;
#46 = DIRECTION ( 'NONE',  ( 0.000000000000000000, -0.000000000000000000, -1.000000000000000000 ) ) ;
#47 = PLANE ( 'NONE',  #53 ) ;
#48 = ORIENTED_EDGE ( 'NONE', *, *, #136, .F. ) ;
#49 = LINE ( 'NONE', #132, #37 ) ;
#50 = LINE ( 'NONE', #92, #244 ) ;
#51 = CARTESIAN_POINT ( 'NONE',  ( 63.99999999999998579, 14.50000000000000000, -64.00000000000001421 ) ) ;
#52 = FACE_OUTER_BOUND ( 'NONE', #100, .T. ) ;
#53 = AXIS2_PLACEMENT_3D ( 'NONE', #5, #202, #172 ) ;
#54 = CARTESIAN_POINT ( 'NONE',  ( 63.99999999999998579, 0.000000000000000000, -64.00000000000001421 ) ) ;
#55 = FACE_OUTER_BOUND ( 'NONE', #3, .T. ) ;
#56 = CARTESIAN_POINT ( 'NONE',  ( 0.000000000000000000, 0.000000000000000000, 0.000000000000000000 ) ) ;
#57 = VECTOR ( 'NONE', #108, 1000.000000000000000 ) ;
#58 = ORIENTED_EDGE ( 'NONE', *, *, #158, .F. ) ;
#59 = VERTEX_POINT ( 'NONE', #33 ) ;
#60 = ADVANCED_FACE ( 'NONE', ( #52 ), #107, .F. ) ;
#61 = ORIENTED_EDGE ( 'NONE', *, *, #237, .F. ) ;
#62 = EDGE_LOOP ( 'NONE', ( #253, #163, #124, #64 ) ) ;
#63 = VECTOR ( 'NONE', #91, 1000.000000000000000 ) ;
#64 = ORIENTED_EDGE ( 'NONE', *, *, #205, .T. ) ;
#65 = DIRECTION ( 'NONE',  ( 0.000000000000000000, -1.000000000000000000, 0.000000000000000000 ) ) ;
#66 = DIRECTION ( 'NONE',  ( 0.000000000000000000, -1.000000000000000000, 0.000000000000000000 ) ) ;
#67 = ORIENTED_EDGE ( 'NONE', *, *, #175, .F. ) ;
#68 = CARTESIAN_POINT ( 'NONE',  ( 64.00000000000001421, 14.50000000000000000, 63.99999999999998579 ) ) ;
#69 = CARTESIAN_POINT ( 'NONE',  ( -64.00000000000000000, 0.000000000000000000, -63.99999999999998579 ) ) ;
#70 = EDGE_CURVE ( 'NONE', #44, #59, #50, .T. ) ;
#71 = CARTESIAN_POINT ( 'NONE',  ( 64.00000000000001421, 0.000000000000000000, 63.99999999999998579 ) ) ;
#72 = LINE ( 'NONE', #90, #43 ) ;
#73 =( NAMED_UNIT ( * ) SI_UNIT ( $, .STERADIAN. ) SOLID_ANGLE_UNIT ( ) );
#74 =( NAMED_UNIT ( * ) SI_UNIT ( $, .STERADIAN. ) SOLID_ANGLE_UNIT ( ) );
#75 = LINE ( 'NONE', #84, #116 ) ;
#76 = PLANE ( 'NONE',  #113 ) ;
#77 = VERTEX_POINT ( 'NONE', #126 ) ;
#78 = EDGE_CURVE ( 'NONE', #77, #238, #72, .T. ) ;
#79 = VECTOR ( 'NONE', #8, 1000.000000000000000 ) ;
#80 = PRODUCT_DEFINITION_SHAPE ( 'NONE', 'NONE',  #242 ) ;
#81 = DIRECTION ( 'NONE',  ( -0.000000000000000000, -1.000000000000000000, -0.000000000000000000 ) ) ;
#82 = EDGE_LOOP ( 'NONE', ( #102, #161, #29, #87, #221, #134 ) ) ;
#83 = CARTESIAN_POINT ( 'NONE',  ( 63.99999999999998579, 14.50000000000000000, -64.00000000000001421 ) ) ;
#84 = CARTESIAN_POINT ( 'NONE',  ( -64.00000000000000000, 14.50000000000000000, -63.99999999999998579 ) ) ;
#85 = DIRECTION ( 'NONE',  ( 0.000000000000000000, -1.000000000000000000, 0.000000000000000000 ) ) ;
#86 = DIRECTION ( 'NONE',  ( -1.000000000000000000, 0.000000000000000000, 0.000000000000000000 ) ) ;
#87 = ORIENTED_EDGE ( 'NONE', *, *, #88, .F. ) ;
#88 = EDGE_CURVE ( 'NONE', #214, #142, #12, .T. ) ;
#89 = VECTOR ( 'NONE', #81, 1000.000000000000000 ) ;
#90 = CARTESIAN_POINT ( 'NONE',  ( 63.99999999999998579, 0.000000000000000000, -64.00000000000001421 ) ) ;
#91 = DIRECTION ( 'NONE',  ( -2.168404344971008868E-16, -0.000000000000000000, -1.000000000000000000 ) ) ;
#92 = CARTESIAN_POINT ( 'NONE',  ( -63.99999999999998579, 14.50000000000000000, 64.00000000000001421 ) ) ;
#93 =( NAMED_UNIT ( * ) PLANE_ANGLE_UNIT ( ) SI_UNIT ( $, .RADIAN. ) );
#94 = PRODUCT_CONTEXT ( 'NONE', #123, 'mechanical' ) ;
#95 = SURFACE_STYLE_FILL_AREA ( #247 ) ;
#96 = DIRECTION ( 'NONE',  ( -0.000000000000000000, -1.000000000000000000, -0.000000000000000000 ) ) ;
#97 = UNCERTAINTY_MEASURE_WITH_UNIT (LENGTH_MEASURE( 1.000000000000000082E-05 ), #42, 'distance_accuracy_value', 'NONE');
#98 = VECTOR ( 'NONE', #220, 1000.000000000000000 ) ;
#99 = EDGE_CURVE ( 'NONE', #156, #212, #30, .T. ) ;
#100 = EDGE_LOOP ( 'NONE', ( #199, #223, #233, #144 ) ) ;
#101 = VERTEX_POINT ( 'NONE', #13 ) ;
#102 = ORIENTED_EDGE ( 'NONE', *, *, #36, .F. ) ;
#103 = ORIENTED_EDGE ( 'NONE', *, *, #222, .T. ) ;
#104 = DIRECTION ( 'NONE',  ( -1.000000000000000000, 0.000000000000000000, 2.168404344971009115E-16 ) ) ;
#105 = VERTEX_POINT ( 'NONE', #128 ) ;
#106 = CARTESIAN_POINT ( 'NONE',  ( -63.99999999999998579, 14.50000000000000000, 52.00000000000002132 ) ) ;
#107 = PLANE ( 'NONE',  #229 ) ;
#108 = DIRECTION ( 'NONE',  ( 1.000000000000000000, 0.000000000000000000, 0.000000000000000000 ) ) ;
#109 = PRESENTATION_STYLE_ASSIGNMENT (( #190 ) ) ;
#110 = LINE ( 'NONE', #14, #210 ) ;
#111 = MECHANICAL_DESIGN_GEOMETRIC_PRESENTATION_REPRESENTATION (  '', ( #26 ), #201 ) ;
#112 = LINE ( 'NONE', #54, #176 ) ;
#113 = AXIS2_PLACEMENT_3D ( 'NONE', #16, #66, #129 ) ;
#114 = CARTESIAN_POINT ( 'NONE',  ( 63.99999999999998579, 14.50000000000000000, -64.00000000000001421 ) ) ;
#115 = EDGE_CURVE ( 'NONE', #212, #4, #224, .T. ) ;
#116 = VECTOR ( 'NONE', #149, 1000.000000000000000 ) ;
#117 = PRODUCT ( 'p64', 'p64', '', ( #94 ) ) ;
#118 = DIRECTION ( 'NONE',  ( 1.084202172485504434E-16, 0.000000000000000000, 1.000000000000000000 ) ) ;
#119 = ORIENTED_EDGE ( 'NONE', *, *, #234, .F. ) ;
#120 = FACE_OUTER_BOUND ( 'NONE', #39, .T. ) ;
#121 = ORIENTED_EDGE ( 'NONE', *, *, #78, .F. ) ;
#122 = LINE ( 'NONE', #28, #79 ) ;
#123 = APPLICATION_CONTEXT ( 'automotive_design' ) ;
#124 = ORIENTED_EDGE ( 'NONE', *, *, #230, .T. ) ;
#125 = SURFACE_SIDE_STYLE ('',( #95 ) ) ;
#126 = CARTESIAN_POINT ( 'NONE',  ( 63.99999999999998579, 0.000000000000000000, -64.00000000000001421 ) ) ;
#127 = DIRECTION ( 'NONE',  ( 1.000000000000000000, 0.000000000000000000, 0.000000000000000000 ) ) ;
#128 = CARTESIAN_POINT ( 'NONE',  ( 64.00000000000001421, 1.599999999999990319, -63.99999999999998579 ) ) ;
#129 = DIRECTION ( 'NONE',  ( 0.000000000000000000, -0.000000000000000000, -1.000000000000000000 ) ) ;
#130 = DIRECTION ( 'NONE',  ( 1.000000000000000000, 0.000000000000000000, 0.000000000000000000 ) ) ;
#131 = VECTOR ( 'NONE', #207, 1000.000000000000000 ) ;
#132 = CARTESIAN_POINT ( 'NONE',  ( -63.99999999999998579, -172.7425830535134423, 52.00000000000002132 ) ) ;
#133 = COLOUR_RGB ( '',0.7921568627450980005, 0.8196078431372548767, 0.9333333333333333481 ) ;
#134 = ORIENTED_EDGE ( 'NONE', *, *, #175, .T. ) ;
#135 = ORIENTED_EDGE ( 'NONE', *, *, #70, .F. ) ;
#136 = EDGE_CURVE ( 'NONE', #101, #142, #225, .T. ) ;
#137 = CARTESIAN_POINT ( 'NONE',  ( -63.99999999999998579, 14.50000000000000000, 64.00000000000001421 ) ) ;
#138 = LINE ( 'NONE', #69, #19 ) ;
#139 = PLANE ( 'NONE',  #153 ) ;
#140 = EDGE_CURVE ( 'NONE', #4, #142, #187, .T. ) ;
#141 = CARTESIAN_POINT ( 'NONE',  ( 64.00000000000001421, 1.599999999999990319, -63.99999999999998579 ) ) ;
#142 = VERTEX_POINT ( 'NONE', #167 ) ;
#143 = FACE_OUTER_BOUND ( 'NONE', #2, .T. ) ;
#144 = ORIENTED_EDGE ( 'NONE', *, *, #115, .F. ) ;
#145 = DIRECTION ( 'NONE',  ( 1.000000000000000000, -0.000000000000000000, -2.168404344971008868E-16 ) ) ;
#146 = DIRECTION ( 'NONE',  ( 1.000000000000000000, 0.000000000000000000, 0.000000000000000000 ) ) ;
#147 = EDGE_CURVE ( 'NONE', #59, #203, #245, .T. ) ;
#148 = APPLICATION_CONTEXT ( 'automotive_design' ) ;
#149 = DIRECTION ( 'NONE',  ( 1.084202172485504434E-16, 0.000000000000000000, 1.000000000000000000 ) ) ;
#150 = DIRECTION ( 'NONE',  ( 0.000000000000000000, 0.000000000000000000, 1.000000000000000000 ) ) ;
#151 = ADVANCED_FACE ( 'NONE', ( #38 ), #240, .F. ) ;
#152 = FILL_AREA_STYLE_COLOUR ( '', #133 ) ;
#153 = AXIS2_PLACEMENT_3D ( 'NONE', #236, #65, #46 ) ;
#154 = ORIENTED_EDGE ( 'NONE', *, *, #158, .T. ) ;
#155 = MANIFOLD_SOLID_BREP ( 'Cut-Extrude1', #32 ) ;
#156 = VERTEX_POINT ( 'NONE', #226 ) ;
#157 = CARTESIAN_POINT ( 'NONE',  ( -64.00000000000000000, 0.000000000000000000, -63.99999999999998579 ) ) ;
#158 = EDGE_CURVE ( 'NONE', #156, #238, #188, .T. ) ;
#159 = FACE_OUTER_BOUND ( 'NONE', #198, .T. ) ;
#160 = CARTESIAN_POINT ( 'NONE',  ( 64.00000000000001421, 1.599999999999990319, 52.00000000000002132 ) ) ;
#161 = ORIENTED_EDGE ( 'NONE', *, *, #230, .F. ) ;
#162 = LINE ( 'NONE', #141, #98 ) ;
#163 = ORIENTED_EDGE ( 'NONE', *, *, #115, .T. ) ;
#164 = DIRECTION ( 'NONE',  ( 2.168404344971009115E-16, 0.000000000000000000, 1.000000000000000000 ) ) ;
#165 = ORIENTED_EDGE ( 'NONE', *, *, #88, .T. ) ;
#166 = VECTOR ( 'NONE', #146, 1000.000000000000000 ) ;
#167 = CARTESIAN_POINT ( 'NONE',  ( 64.00000000000001421, 14.50000000000000000, 52.00000000000002132 ) ) ;
#168 = EDGE_CURVE ( 'NONE', #212, #101, #49, .T. ) ;
#169 = CARTESIAN_POINT ( 'NONE',  ( -64.00000000000000000, 1.599999999999990319, -63.99999999999998579 ) ) ;
#170 = FACE_OUTER_BOUND ( 'NONE', #62, .T. ) ;
#171 = APPLICATION_PROTOCOL_DEFINITION ( 'draft international standard', 'automotive_design', 1998, #148 ) ;
#172 = DIRECTION ( 'NONE',  ( -1.084202172485504557E-16, 0.000000000000000000, -1.000000000000000000 ) ) ;
#173 = CARTESIAN_POINT ( 'NONE',  ( -63.99999999999998579, 1.599999999999990319, 52.00000000000002132 ) ) ;
#174 = AXIS2_PLACEMENT_3D ( 'NONE', #83, #219, #195 ) ;
#175 = EDGE_CURVE ( 'NONE', #203, #77, #112, .T. ) ;
#176 = VECTOR ( 'NONE', #34, 1000.000000000000000 ) ;
#177 = ORIENTED_EDGE ( 'NONE', *, *, #17, .F. ) ;
#178 = ORIENTED_EDGE ( 'NONE', *, *, #205, .F. ) ;
#179 = ORIENTED_EDGE ( 'NONE', *, *, #147, .T. ) ;
#180 = ORIENTED_EDGE ( 'NONE', *, *, #237, .T. ) ;
#181 = CARTESIAN_POINT ( 'NONE',  ( -64.00000000000000000, 14.50000000000000000, -63.99999999999998579 ) ) ;
#182 = ORIENTED_EDGE ( 'NONE', *, *, #78, .T. ) ;
#183 = CARTESIAN_POINT ( 'NONE',  ( 64.00000000000001421, -172.7425830535134423, 52.00000000000002132 ) ) ;
#184 = VECTOR ( 'NONE', #145, 1000.000000000000000 ) ;
#185 = DIRECTION ( 'NONE',  ( -1.000000000000000000, 0.000000000000000000, 2.168404344971008868E-16 ) ) ;
#186 = VECTOR ( 'NONE', #22, 1000.000000000000000 ) ;
#187 = LINE ( 'NONE', #183, #196 ) ;
#188 = LINE ( 'NONE', #181, #21 ) ;
#189 = PRODUCT_RELATED_PRODUCT_CATEGORY ( 'part', '', ( #117 ) ) ;
#190 = SURFACE_STYLE_USAGE ( .BOTH. , #125 ) ;
#191 =( LENGTH_UNIT ( ) NAMED_UNIT ( * ) SI_UNIT ( .MILLI., .METRE. ) );
#192 = ORIENTED_EDGE ( 'NONE', *, *, #70, .T. ) ;
#193 = ADVANCED_FACE ( 'NONE', ( #170 ), #76, .F. ) ;
#194 = ADVANCED_FACE ( 'NONE', ( #55 ), #209, .F. ) ;
#195 = DIRECTION ( 'NONE',  ( 1.000000000000000000, 0.000000000000000000, -2.168404344971009115E-16 ) ) ;
#196 = VECTOR ( 'NONE', #10, 1000.000000000000000 ) ;
#197 =( NAMED_UNIT ( * ) PLANE_ANGLE_UNIT ( ) SI_UNIT ( $, .RADIAN. ) );
#198 = EDGE_LOOP ( 'NONE', ( #177, #121, #67, #24 ) ) ;
#199 = ORIENTED_EDGE ( 'NONE', *, *, #168, .T. ) ;
#200 = ORIENTED_EDGE ( 'NONE', *, *, #17, .T. ) ;
#201 =( GEOMETRIC_REPRESENTATION_CONTEXT ( 3 ) GLOBAL_UNCERTAINTY_ASSIGNED_CONTEXT ( ( #231 ) ) GLOBAL_UNIT_ASSIGNED_CONTEXT ( ( #191, #93, #74 ) ) REPRESENTATION_CONTEXT ( 'NONE', 'WORKASPACE' ) );
#202 = DIRECTION ( 'NONE',  ( 1.000000000000000000, 0.000000000000000000, -1.084202172485504557E-16 ) ) ;
#203 = VERTEX_POINT ( 'NONE', #211 ) ;
#204 = DIRECTION ( 'NONE',  ( -0.000000000000000000, -1.000000000000000000, -0.000000000000000000 ) ) ;
#205 = EDGE_CURVE ( 'NONE', #105, #156, #110, .T. ) ;
#206 = DIRECTION ( 'NONE',  ( -0.000000000000000000, 0.000000000000000000, 1.000000000000000000 ) ) ;
#207 = DIRECTION ( 'NONE',  ( 1.196361017915039239E-16, 0.000000000000000000, 1.000000000000000000 ) ) ;
#208 = DIRECTION ( 'NONE',  ( -0.000000000000000000, 1.000000000000000000, -0.000000000000000000 ) ) ;
#209 = PLANE ( 'NONE',  #1 ) ;
#210 = VECTOR ( 'NONE', #86, 1000.000000000000000 ) ;
#211 = CARTESIAN_POINT ( 'NONE',  ( 64.00000000000001421, 0.000000000000000000, 63.99999999999998579 ) ) ;
#212 = VERTEX_POINT ( 'NONE', #173 ) ;
#213 = ADVANCED_FACE ( 'NONE', ( #143 ), #47, .F. ) ;
#214 = VERTEX_POINT ( 'NONE', #248 ) ;
#215 = ORIENTED_EDGE ( 'NONE', *, *, #168, .F. ) ;
#216 = AXIS2_PLACEMENT_3D ( 'NONE', #114, #250, #164 ) ;
#217 = ORIENTED_EDGE ( 'NONE', *, *, #36, .T. ) ;
#218 = PRODUCT_DEFINITION_FORMATION_WITH_SPECIFIED_SOURCE ( 'ANY', '', #117, .NOT_KNOWN. ) ;
#219 = DIRECTION ( 'NONE',  ( 2.168404344971009115E-16, -0.000000000000000000, 1.000000000000000000 ) ) ;
#220 = DIRECTION ( 'NONE',  ( 0.000000000000000000, 0.000000000000000000, -1.000000000000000000 ) ) ;
#221 = ORIENTED_EDGE ( 'NONE', *, *, #234, .T. ) ;
#222 = EDGE_CURVE ( 'NONE', #101, #44, #75, .T. ) ;
#223 = ORIENTED_EDGE ( 'NONE', *, *, #136, .T. ) ;
#224 = LINE ( 'NONE', #246, #166 ) ;
#225 = LINE ( 'NONE', #106, #57 ) ;
#226 = CARTESIAN_POINT ( 'NONE',  ( -64.00000000000000000, 1.599999999999990319, -63.99999999999998579 ) ) ;
#227 = CARTESIAN_POINT ( 'NONE',  ( 64.00000000000001421, 14.50000000000000000, 63.99999999999998579 ) ) ;
#228 = SHAPE_DEFINITION_REPRESENTATION ( #80, #252 ) ;
#229 = AXIS2_PLACEMENT_3D ( 'NONE', #31, #206, #127 ) ;
#230 = EDGE_CURVE ( 'NONE', #4, #105, #162, .T. ) ;
#231 = UNCERTAINTY_MEASURE_WITH_UNIT (LENGTH_MEASURE( 1.000000000000000082E-05 ), #191, 'distance_accuracy_value', 'NONE');
#232 = AXIS2_PLACEMENT_3D ( 'NONE', #56, #150, #130 ) ;
#233 = ORIENTED_EDGE ( 'NONE', *, *, #140, .F. ) ;
#234 = EDGE_CURVE ( 'NONE', #214, #203, #122, .T. ) ;
#235 = EDGE_LOOP ( 'NONE', ( #165, #48, #103, #180 ) ) ;
#236 = CARTESIAN_POINT ( 'NONE',  ( 0.000000000000000000, 0.000000000000000000, 0.000000000000000000 ) ) ;
#237 = EDGE_CURVE ( 'NONE', #44, #214, #25, .T. ) ;
#238 = VERTEX_POINT ( 'NONE', #157 ) ;
#239 = LINE ( 'NONE', #20, #89 ) ;
#240 = PLANE ( 'NONE',  #216 ) ;
#241 = PLANE ( 'NONE',  #11 ) ;
#242 = PRODUCT_DEFINITION ( 'UNKNOWN', '', #218, #251 ) ;
#243 = DIRECTION ( 'NONE',  ( 0.000000000000000000, -0.000000000000000000, -1.000000000000000000 ) ) ;
#244 = VECTOR ( 'NONE', #204, 1000.000000000000000 ) ;
#245 = LINE ( 'NONE', #71, #184 ) ;
#246 = CARTESIAN_POINT ( 'NONE',  ( -63.99999999999998579, 1.599999999999990319, 52.00000000000002132 ) ) ;
#247 = FILL_AREA_STYLE ('',( #152 ) ) ;
#248 = CARTESIAN_POINT ( 'NONE',  ( 64.00000000000001421, 14.50000000000000000, 63.99999999999998579 ) ) ;
#249 = APPLICATION_PROTOCOL_DEFINITION ( 'draft international standard', 'automotive_design', 1998, #123 ) ;
#250 = DIRECTION ( 'NONE',  ( -1.000000000000000000, 0.000000000000000000, 2.168404344971009115E-16 ) ) ;
#251 = PRODUCT_DEFINITION_CONTEXT ( 'detailed design', #148, 'design' ) ;
#252 = ADVANCED_BREP_SHAPE_REPRESENTATION ( 'p64', ( #155, #232 ), #18 ) ;
#253 = ORIENTED_EDGE ( 'NONE', *, *, #99, .T. ) ;
ENDSEC;
END-ISO-10303-21;
