solid OpenSCAD_Model
  facet normal 0 0 1
    outer loop
      vertex 16.17 -3.72499 1.2
      vertex 16.3005 -3.71643 1.2
      vertex 16.4288 -3.69092 1.2
    endloop
  endfacet
  facet normal 0.33035 -0.943858 0
    outer loop
      vertex 16.4298 -3.69057 -1.49526e-07
      vertex 16.4288 -3.69092 1.2
      vertex 16.4288 -3.69092 -1.49526e-07
    endloop
  endfacet
  facet normal 0.321451 -0.946926 -8.3114e-06
    outer loop
      vertex 16.4288 -3.69092 1.2
      vertex 16.4298 -3.69057 -1.49526e-07
      vertex 16.5527 -3.64886 1.2
    endloop
  endfacet
  facet normal 0 0 1
    outer loop
      vertex -17.1614 2.85552 1.2
      vertex -16.67 -3.59102 1.2
      vertex -16.17 -3.72499 1.2
    endloop
  endfacet
  facet normal 0 0 1
    outer loop
      vertex 16.17 -3.72499 1.2
      vertex 16.4288 -3.69092 1.2
      vertex 16.67 -3.59102 1.2
    endloop
  endfacet
  facet normal 0 0 1
    outer loop
      vertex 17.1614 -2.85551 1.2
      vertex 17.17 2.72499 1.2
      vertex 17.1614 2.85552 1.2
    endloop
  endfacet
  facet normal 0.997851 -0.0655213 0
    outer loop
      vertex 17.1615 -2.85444 -1.504e-07
      vertex 17.17 -2.72499 -1.50536e-07
      vertex 17.17 -2.72499 1.2
    endloop
  endfacet
  facet normal 0.0654697 -0.997855 0
    outer loop
      vertex 16.1711 -3.72492 -1.4949e-07
      vertex 16.3005 -3.71643 -1.49499e-07
      vertex 16.3005 -3.71643 1.2
    endloop
  endfacet
  facet normal 0.321382 0.94695 -0
    outer loop
      vertex 16.5527 3.64887 -1.57202e-07
      vertex 16.4288 3.69092 1.2
      vertex 16.5527 3.64887 1.2
    endloop
  endfacet
  facet normal 0.321382 0.94695 0
    outer loop
      vertex 16.4288 3.69092 1.2
      vertex 16.5527 3.64887 -1.57202e-07
      vertex 16.4288 3.69092 -1.57246e-07
    endloop
  endfacet
  facet normal 0.194931 -0.980817 0
    outer loop
      vertex 16.3005 -3.71643 1.2
      vertex 16.3005 -3.71643 -1.49499e-07
      vertex 16.4278 -3.69113 -1.49525e-07
    endloop
  endfacet
  facet normal 0.195013 -0.980801 9.12891e-06
    outer loop
      vertex 16.4278 -3.69113 -1.49525e-07
      vertex 16.4288 -3.69092 1.2
      vertex 16.3005 -3.71643 1.2
    endloop
  endfacet
  facet normal 0.205517 -0.978653 0
    outer loop
      vertex 16.4288 -3.69092 1.2
      vertex 16.4278 -3.69113 -1.49525e-07
      vertex 16.4288 -3.69092 -1.49526e-07
    endloop
  endfacet
  facet normal 0.997837 0.0657427 0
    outer loop
      vertex 17.17 2.72499 1.2
      vertex 17.1614 2.85552 -1.56372e-07
      vertex 17.1614 2.85552 1.2
    endloop
  endfacet
  facet normal 0.997837 0.0657427 0
    outer loop
      vertex 17.1614 2.85552 -1.56372e-07
      vertex 17.17 2.72499 1.2
      vertex 17.17 2.72499 -1.56235e-07
    endloop
  endfacet
  facet normal -0.195013 -0.980801 9.12891e-06
    outer loop
      vertex -16.4288 -3.69092 1.2
      vertex -16.4278 -3.69113 -1.49525e-07
      vertex -16.3005 -3.71643 1.2
    endloop
  endfacet
  facet normal -0.205517 -0.978653 0
    outer loop
      vertex -16.4278 -3.69113 -1.49525e-07
      vertex -16.4288 -3.69092 1.2
      vertex -16.4288 -3.69092 -1.49526e-07
    endloop
  endfacet
  facet normal 0.442252 -0.896891 -9.78704e-06
    outer loop
      vertex 16.669 -3.5915 -1.4963e-07
      vertex 16.67 -3.59102 1.2
      vertex 16.5527 -3.64886 1.2
    endloop
  endfacet
  facet normal 0.432731 -0.901523 0
    outer loop
      vertex 16.67 -3.59102 1.2
      vertex 16.669 -3.5915 -1.4963e-07
      vertex 16.67 -3.59102 -1.4963e-07
    endloop
  endfacet
  facet normal 0.997836 -0.0657477 2.4528e-05
    outer loop
      vertex 17.1614 -2.85551 1.2
      vertex 17.1615 -2.85444 -1.504e-07
      vertex 17.17 -2.72499 1.2
    endloop
  endfacet
  facet normal 0.995661 -0.0930524 0
    outer loop
      vertex 17.1615 -2.85444 -1.504e-07
      vertex 17.1614 -2.85551 1.2
      vertex 17.1614 -2.85551 -1.50399e-07
    endloop
  endfacet
  facet normal 0 0 1
    outer loop
      vertex 16.17 3.72499 1.2
      vertex 16.4288 3.69092 1.2
      vertex 16.3005 3.71643 1.2
    endloop
  endfacet
  facet normal -0 0 1
    outer loop
      vertex -17.1614 -2.85551 1.2
      vertex -16.67 -3.59102 1.2
      vertex -17.1614 2.85552 1.2
    endloop
  endfacet
  facet normal 0 -1 0
    outer loop
      vertex -16.17 -3.72499 1.2
      vertex -15.27 -3.72499 0.196482
      vertex 16.17 -3.72499 1.2
    endloop
  endfacet
  facet normal 0 -1 0
    outer loop
      vertex -16.17 -3.72499 -1.4949e-07
      vertex -15.27 -3.72499 0.196482
      vertex -16.17 -3.72499 1.2
    endloop
  endfacet
  facet normal 0 -1 -0
    outer loop
      vertex -15.27 -3.72499 0.196482
      vertex -16.17 -3.72499 -1.4949e-07
      vertex -15.27 -3.72499 -1.4949e-07
    endloop
  endfacet
  facet normal 0 -1 0
    outer loop
      vertex 15.27 -3.72499 0.196482
      vertex 16.17 -3.72499 1.2
      vertex -15.27 -3.72499 0.196482
    endloop
  endfacet
  facet normal 0 -1 0
    outer loop
      vertex 16.17 -3.72499 -1.4949e-07
      vertex 15.27 -3.72499 0.196482
      vertex 15.27 -3.72499 -1.4949e-07
    endloop
  endfacet
  facet normal 0 -1 0
    outer loop
      vertex 15.27 -3.72499 0.196482
      vertex 16.17 -3.72499 -1.4949e-07
      vertex 16.17 -3.72499 1.2
    endloop
  endfacet
  facet normal -0.194931 -0.980817 0
    outer loop
      vertex -16.4278 -3.69113 -1.49525e-07
      vertex -16.3005 -3.71643 -1.49499e-07
      vertex -16.3005 -3.71643 1.2
    endloop
  endfacet
  facet normal 0 0 1
    outer loop
      vertex 16.4288 -3.69092 1.2
      vertex 16.5527 -3.64886 1.2
      vertex 16.67 -3.59102 1.2
    endloop
  endfacet
  facet normal 0 0 1
    outer loop
      vertex 16.67 -3.59102 1.2
      vertex 17.1614 -2.85551 1.2
      vertex 17.1614 2.85552 1.2
    endloop
  endfacet
  facet normal 0 0 1
    outer loop
      vertex 16.17 -3.72499 1.2
      vertex 16.67 -3.59102 1.2
      vertex 17.1614 2.85552 1.2
    endloop
  endfacet
  facet normal 0 1 -0
    outer loop
      vertex 16.17 3.72499 -1.57281e-07
      vertex 15.27 3.72499 1.2
      vertex 16.17 3.72499 1.2
    endloop
  endfacet
  facet normal 0 1 0
    outer loop
      vertex 15.27 3.72499 1.2
      vertex 16.17 3.72499 -1.57281e-07
      vertex 15.27 3.72499 -1.57281e-07
    endloop
  endfacet
  facet normal 0 1 -0
    outer loop
      vertex -15.27 3.72499 -1.57281e-07
      vertex -16.17 3.72499 1.2
      vertex -15.27 3.72499 1.2
    endloop
  endfacet
  facet normal 0 1 0
    outer loop
      vertex -16.17 3.72499 1.2
      vertex -15.27 3.72499 -1.57281e-07
      vertex -16.17 3.72499 -1.57281e-07
    endloop
  endfacet
  facet normal -0.195013 0.980801 0
    outer loop
      vertex -16.3005 3.71643 1.2
      vertex -16.4288 3.69092 -1.57246e-07
      vertex -16.4288 3.69092 1.2
    endloop
  endfacet
  facet normal -0.195013 0.980801 0
    outer loop
      vertex -16.4288 3.69092 -1.57246e-07
      vertex -16.3005 3.71643 1.2
      vertex -16.3005 3.71643 -1.57272e-07
    endloop
  endfacet
  facet normal 0 0 1
    outer loop
      vertex -17.1614 -2.85551 1.2
      vertex -16.9633 -3.33376 1.2
      vertex -16.67 -3.59102 1.2
    endloop
  endfacet
  facet normal 0 0 1
    outer loop
      vertex -15.27 2.85552 1.2
      vertex -16.17 -3.72499 1.2
      vertex -15.27 -3.61888 1.2
    endloop
  endfacet
  facet normal 0 -0 1
    outer loop
      vertex -16.17 -3.72499 1.2
      vertex -15.27 2.85552 1.2
      vertex -17.1614 2.85552 1.2
    endloop
  endfacet
  facet normal -0 0 1
    outer loop
      vertex 15.27 2.85552 1.2
      vertex 16.17 -3.72499 1.2
      vertex 17.1614 2.85552 1.2
    endloop
  endfacet
  facet normal -0 0 1
    outer loop
      vertex 15.27 -3.61888 1.2
      vertex 16.17 -3.72499 1.2
      vertex 15.27 2.85552 1.2
    endloop
  endfacet
  facet normal -0 0 1
    outer loop
      vertex -15.27 -3.61888 1.2
      vertex 16.17 -3.72499 1.2
      vertex 15.27 -3.61888 1.2
    endloop
  endfacet
  facet normal 0 0 1
    outer loop
      vertex 16.17 -3.72499 1.2
      vertex -15.27 -3.61888 1.2
      vertex -16.17 -3.72499 1.2
    endloop
  endfacet
  facet normal 0.195013 0.980801 -0
    outer loop
      vertex 16.4288 3.69092 -1.57246e-07
      vertex 16.3005 3.71643 1.2
      vertex 16.4288 3.69092 1.2
    endloop
  endfacet
  facet normal 0.195013 0.980801 0
    outer loop
      vertex 16.3005 3.71643 1.2
      vertex 16.4288 3.69092 -1.57246e-07
      vertex 16.3005 3.71643 -1.57272e-07
    endloop
  endfacet
  facet normal 0.0654532 0.997856 -0
    outer loop
      vertex 16.3005 3.71643 -1.57272e-07
      vertex 16.17 3.72499 1.2
      vertex 16.3005 3.71643 1.2
    endloop
  endfacet
  facet normal 0.0654532 0.997856 0
    outer loop
      vertex 16.17 3.72499 1.2
      vertex 16.3005 3.71643 -1.57272e-07
      vertex 16.17 3.72499 -1.57281e-07
    endloop
  endfacet
  facet normal -0.75196 0.659208 0
    outer loop
      vertex -16.9626 3.33457 -1.56873e-07
      vertex -16.8771 3.4321 1.2
      vertex -16.8771 3.4321 -1.56975e-07
    endloop
  endfacet
  facet normal 0 0 1
    outer loop
      vertex -16.4288 3.69092 1.2
      vertex -16.17 3.72499 1.2
      vertex -16.3005 3.71643 1.2
    endloop
  endfacet
  facet normal -0.659454 -0.751745 -0
    outer loop
      vertex -16.8771 -3.4321 1.2
      vertex -16.8771 -3.4321 -1.49796e-07
      vertex -16.7796 -3.51763 -1.49707e-07
    endloop
  endfacet
  facet normal 0.0635079 -0.997981 0
    outer loop
      vertex 16.1711 -3.72492 -1.4949e-07
      vertex 16.17 -3.72499 1.2
      vertex 16.17 -3.72499 -1.4949e-07
    endloop
  endfacet
  facet normal 0.0654532 -0.997856 1.79053e-06
    outer loop
      vertex 16.17 -3.72499 1.2
      vertex 16.1711 -3.72492 -1.4949e-07
      vertex 16.3005 -3.71643 1.2
    endloop
  endfacet
  facet normal 0 0 1
    outer loop
      vertex -16.4288 -3.69092 1.2
      vertex -16.3005 -3.71643 1.2
      vertex -16.17 -3.72499 1.2
    endloop
  endfacet
  facet normal -0.0654532 -0.997856 1.79053e-06
    outer loop
      vertex -16.1711 -3.72492 -1.4949e-07
      vertex -16.17 -3.72499 1.2
      vertex -16.3005 -3.71643 1.2
    endloop
  endfacet
  facet normal -0.0635079 -0.997981 -0
    outer loop
      vertex -16.17 -3.72499 1.2
      vertex -16.1711 -3.72492 -1.4949e-07
      vertex -16.17 -3.72499 -1.4949e-07
    endloop
  endfacet
  facet normal 0 0 1
    outer loop
      vertex 16.17 3.72499 1.2
      vertex 17.1614 2.85552 1.2
      vertex 16.67 3.59102 1.2
    endloop
  endfacet
  facet normal 0 0 1
    outer loop
      vertex 16.17 3.72499 1.2
      vertex 16.67 3.59102 1.2
      vertex 16.4288 3.69092 1.2
    endloop
  endfacet
  facet normal 0 0 1
    outer loop
      vertex 17.1614 -2.85551 1.2
      vertex 17.17 -2.72499 1.2
      vertex 17.17 2.72499 1.2
    endloop
  endfacet
  facet normal 0.946935 -0.321426 0
    outer loop
      vertex 17.0942 -3.10666 -1.50137e-07
      vertex 17.1359 -2.98381 -1.50265e-07
      vertex 17.1359 -2.98381 1.2
    endloop
  endfacet
  facet normal 0 0 1
    outer loop
      vertex 17.036 3.22499 1.2
      vertex 17.1614 2.85552 1.2
      vertex 17.1359 2.98381 1.2
    endloop
  endfacet
  facet normal -0.0654532 0.997856 0
    outer loop
      vertex -16.17 3.72499 1.2
      vertex -16.3005 3.71643 -1.57272e-07
      vertex -16.3005 3.71643 1.2
    endloop
  endfacet
  facet normal -0.0654532 0.997856 0
    outer loop
      vertex -16.3005 3.71643 -1.57272e-07
      vertex -16.17 3.72499 1.2
      vertex -16.17 3.72499 -1.57281e-07
    endloop
  endfacet
  facet normal 0 0 1
    outer loop
      vertex -16.67 3.59102 1.2
      vertex -16.17 3.72499 1.2
      vertex -16.4288 3.69092 1.2
    endloop
  endfacet
  facet normal 0 0 1
    outer loop
      vertex -16.9633 -3.33376 1.2
      vertex -16.8771 -3.4321 1.2
      vertex -16.7788 -3.51834 1.2
    endloop
  endfacet
  facet normal 0 0 1
    outer loop
      vertex -17.1614 2.85552 1.2
      vertex -16.17 3.72499 1.2
      vertex -16.67 3.59102 1.2
    endloop
  endfacet
  facet normal 0 0 1
    outer loop
      vertex 15.27 2.85552 1.2
      vertex 16.17 3.72499 1.2
      vertex 15.27 3.72499 1.2
    endloop
  endfacet
  facet normal 0 0 1
    outer loop
      vertex 16.17 3.72499 1.2
      vertex 15.27 2.85552 1.2
      vertex 17.1614 2.85552 1.2
    endloop
  endfacet
  facet normal -0 0 1
    outer loop
      vertex -16.17 3.72499 1.2
      vertex -15.27 2.85552 1.2
      vertex -15.27 3.72499 1.2
    endloop
  endfacet
  facet normal 0 0 1
    outer loop
      vertex -15.27 2.85552 1.2
      vertex -16.17 3.72499 1.2
      vertex -17.1614 2.85552 1.2
    endloop
  endfacet
  facet normal -0.896724 0.442591 0
    outer loop
      vertex -17.0939 3.10768 -1.56636e-07
      vertex -17.036 3.22499 1.2
      vertex -17.036 3.22499 -1.56758e-07
    endloop
  endfacet
  facet normal -0.896724 0.442591 0
    outer loop
      vertex -17.036 3.22499 1.2
      vertex -17.0939 3.10768 -1.56636e-07
      vertex -17.0939 3.10768 1.2
    endloop
  endfacet
  facet normal -0.0654697 -0.997855 -0
    outer loop
      vertex -16.3005 -3.71643 1.2
      vertex -16.3005 -3.71643 -1.49499e-07
      vertex -16.1711 -3.72492 -1.4949e-07
    endloop
  endfacet
  facet normal 0 0 1
    outer loop
      vertex 16.4288 3.69092 1.2
      vertex 16.67 3.59102 1.2
      vertex 16.5527 3.64887 1.2
    endloop
  endfacet
  facet normal 0.442333 -0.896851 0
    outer loop
      vertex 16.5527 -3.64886 1.2
      vertex 16.5527 -3.64886 -1.4957e-07
      vertex 16.669 -3.5915 -1.4963e-07
    endloop
  endfacet
  facet normal 0.831386 -0.555696 0
    outer loop
      vertex 16.9639 -3.33286 -1.499e-07
      vertex 17.036 -3.22499 -1.50013e-07
      vertex 17.036 -3.22499 1.2
    endloop
  endfacet
  facet normal 1 0 0
    outer loop
      vertex 17.17 2.72499 1.2
      vertex 17.17 -2.72499 -1.50536e-07
      vertex 17.17 2.72499 -1.56235e-07
    endloop
  endfacet
  facet normal 1 0 0
    outer loop
      vertex 17.17 -2.72499 -1.50536e-07
      vertex 17.17 2.72499 1.2
      vertex 17.17 -2.72499 1.2
    endloop
  endfacet
  facet normal 0 0 1
    outer loop
      vertex 16.67 3.59102 1.2
      vertex 17.1614 2.85552 1.2
      vertex 17.036 3.22499 1.2
    endloop
  endfacet
  facet normal 0.896724 0.442591 0
    outer loop
      vertex 17.0939 3.10768 1.2
      vertex 17.036 3.22499 -1.56758e-07
      vertex 17.036 3.22499 1.2
    endloop
  endfacet
  facet normal 0.896724 0.442591 0
    outer loop
      vertex 17.036 3.22499 -1.56758e-07
      vertex 17.0939 3.10768 1.2
      vertex 17.0939 3.10768 -1.56636e-07
    endloop
  endfacet
  facet normal 0 0 1
    outer loop
      vertex -16.67 3.59102 1.2
      vertex -16.4288 3.69092 1.2
      vertex -16.5527 3.64887 1.2
    endloop
  endfacet
  facet normal -0.995661 -0.0930524 -0
    outer loop
      vertex -17.1614 -2.85551 1.2
      vertex -17.1615 -2.85444 -1.504e-07
      vertex -17.1614 -2.85551 -1.50399e-07
    endloop
  endfacet
  facet normal -0.997836 -0.0657477 2.4528e-05
    outer loop
      vertex -17.1615 -2.85444 -1.504e-07
      vertex -17.1614 -2.85551 1.2
      vertex -17.17 -2.72499 1.2
    endloop
  endfacet
  facet normal 0 0 1
    outer loop
      vertex -16.8771 3.4321 1.2
      vertex -16.67 3.59102 1.2
      vertex -16.7788 3.51834 1.2
    endloop
  endfacet
  facet normal 0 0 1
    outer loop
      vertex -16.67 -3.59102 1.2
      vertex -16.4288 -3.69092 1.2
      vertex -16.17 -3.72499 1.2
    endloop
  endfacet
  facet normal 0.321378 -0.946951 0
    outer loop
      vertex 16.4298 -3.69057 -1.49526e-07
      vertex 16.5527 -3.64886 -1.4957e-07
      vertex 16.5527 -3.64886 1.2
    endloop
  endfacet
  facet normal 0.982662 -0.185408 0
    outer loop
      vertex 17.1614 -2.85551 1.2
      vertex 17.1612 -2.85657 -1.50398e-07
      vertex 17.1614 -2.85551 -1.50399e-07
    endloop
  endfacet
  facet normal 0.980815 -0.19494 8.7277e-06
    outer loop
      vertex 17.1612 -2.85657 -1.50398e-07
      vertex 17.1614 -2.85551 1.2
      vertex 17.1359 -2.98381 1.2
    endloop
  endfacet
  facet normal 0.659454 -0.751745 0
    outer loop
      vertex 16.7796 -3.51763 -1.49707e-07
      vertex 16.8771 -3.4321 -1.49796e-07
      vertex 16.8771 -3.4321 1.2
    endloop
  endfacet
  facet normal 0 0 1
    outer loop
      vertex 16.67 -3.59102 1.2
      vertex 16.7788 -3.51834 1.2
      vertex 16.9633 -3.33376 1.2
    endloop
  endfacet
  facet normal 0.555476 0.831533 -0
    outer loop
      vertex 16.7788 3.51834 -1.57065e-07
      vertex 16.67 3.59102 1.2
      vertex 16.7788 3.51834 1.2
    endloop
  endfacet
  facet normal 0.555476 0.831533 0
    outer loop
      vertex 16.67 3.59102 1.2
      vertex 16.7788 3.51834 -1.57065e-07
      vertex 16.67 3.59102 -1.57141e-07
    endloop
  endfacet
  facet normal 0 0 1
    outer loop
      vertex 17.036 3.22499 1.2
      vertex 17.1359 2.98381 1.2
      vertex 17.0939 3.10768 1.2
    endloop
  endfacet
  facet normal 0.980812 0.194955 0
    outer loop
      vertex 17.1614 2.85552 1.2
      vertex 17.1359 2.98381 -1.56506e-07
      vertex 17.1359 2.98381 1.2
    endloop
  endfacet
  facet normal 0.980812 0.194955 0
    outer loop
      vertex 17.1359 2.98381 -1.56506e-07
      vertex 17.1614 2.85552 1.2
      vertex 17.1614 2.85552 -1.56372e-07
    endloop
  endfacet
  facet normal 0 0 1
    outer loop
      vertex -17.036 3.22499 1.2
      vertex -16.67 3.59102 1.2
      vertex -16.8771 3.4321 1.2
    endloop
  endfacet
  facet normal -0.997837 0.0657427 0
    outer loop
      vertex -17.17 2.72499 -1.56235e-07
      vertex -17.1614 2.85552 1.2
      vertex -17.1614 2.85552 -1.56372e-07
    endloop
  endfacet
  facet normal -0.997837 0.0657427 0
    outer loop
      vertex -17.1614 2.85552 1.2
      vertex -17.17 2.72499 -1.56235e-07
      vertex -17.17 2.72499 1.2
    endloop
  endfacet
  facet normal -0 0 1
    outer loop
      vertex -17.17 2.72499 1.2
      vertex -17.1614 -2.85551 1.2
      vertex -17.1614 2.85552 1.2
    endloop
  endfacet
  facet normal 0 0 1
    outer loop
      vertex -17.036 3.22499 1.2
      vertex -16.8771 3.4321 1.2
      vertex -16.9633 3.33376 1.2
    endloop
  endfacet
  facet normal 0.947042 0.321109 0
    outer loop
      vertex 17.1359 2.98381 1.2
      vertex 17.0939 3.10768 -1.56636e-07
      vertex 17.0939 3.10768 1.2
    endloop
  endfacet
  facet normal 0.947042 0.321109 0
    outer loop
      vertex 17.0939 3.10768 -1.56636e-07
      vertex 17.1359 2.98381 1.2
      vertex 17.1359 2.98381 -1.56506e-07
    endloop
  endfacet
  facet normal -0.997851 -0.0655213 -0
    outer loop
      vertex -17.17 -2.72499 1.2
      vertex -17.17 -2.72499 -1.50536e-07
      vertex -17.1615 -2.85444 -1.504e-07
    endloop
  endfacet
  facet normal 0 0 1
    outer loop
      vertex -17.1614 -2.85551 1.2
      vertex -17.0939 -3.10768 1.2
      vertex -16.9633 -3.33376 1.2
    endloop
  endfacet
  facet normal -0.980799 -0.195019 0
    outer loop
      vertex -17.1612 -2.85657 -1.50398e-07
      vertex -17.1359 -2.98381 -1.50265e-07
      vertex -17.1359 -2.98381 1.2
    endloop
  endfacet
  facet normal -0.982662 -0.185408 0
    outer loop
      vertex -17.1612 -2.85657 -1.50398e-07
      vertex -17.1614 -2.85551 1.2
      vertex -17.1614 -2.85551 -1.50399e-07
    endloop
  endfacet
  facet normal -0.980815 -0.19494 8.7277e-06
    outer loop
      vertex -17.1614 -2.85551 1.2
      vertex -17.1612 -2.85657 -1.50398e-07
      vertex -17.1359 -2.98381 1.2
    endloop
  endfacet
  facet normal 0 0 1
    outer loop
      vertex -16.67 -3.59102 1.2
      vertex -16.5527 -3.64886 1.2
      vertex -16.4288 -3.69092 1.2
    endloop
  endfacet
  facet normal -0.321451 -0.946926 -8.3114e-06
    outer loop
      vertex -16.4298 -3.69057 -1.49526e-07
      vertex -16.4288 -3.69092 1.2
      vertex -16.5527 -3.64886 1.2
    endloop
  endfacet
  facet normal -0.33035 -0.943858 -0
    outer loop
      vertex -16.4288 -3.69092 1.2
      vertex -16.4298 -3.69057 -1.49526e-07
      vertex -16.4288 -3.69092 -1.49526e-07
    endloop
  endfacet
  facet normal 0.75196 -0.659208 0
    outer loop
      vertex 16.8771 -3.4321 1.2
      vertex 16.8771 -3.4321 -1.49796e-07
      vertex 16.9626 -3.33457 -1.49898e-07
    endloop
  endfacet
  facet normal 0.980799 -0.195019 0
    outer loop
      vertex 17.1359 -2.98381 1.2
      vertex 17.1359 -2.98381 -1.50265e-07
      vertex 17.1612 -2.85657 -1.50398e-07
    endloop
  endfacet
  facet normal 0.756613 -0.653863 0
    outer loop
      vertex 16.9633 -3.33376 1.2
      vertex 16.9626 -3.33457 -1.49898e-07
      vertex 16.9633 -3.33376 -1.49899e-07
    endloop
  endfacet
  facet normal 0.751998 -0.659165 6.27048e-06
    outer loop
      vertex 16.9626 -3.33457 -1.49898e-07
      vertex 16.9633 -3.33376 1.2
      vertex 16.8771 -3.4321 1.2
    endloop
  endfacet
  facet normal 0.831391 -0.555688 -1.0701e-06
    outer loop
      vertex 16.9633 -3.33376 1.2
      vertex 16.9639 -3.33286 -1.499e-07
      vertex 17.036 -3.22499 1.2
    endloop
  endfacet
  facet normal 0.83205 -0.5547 0
    outer loop
      vertex 16.9639 -3.33286 -1.499e-07
      vertex 16.9633 -3.33376 1.2
      vertex 16.9633 -3.33376 -1.49899e-07
    endloop
  endfacet
  facet normal 0 0 1
    outer loop
      vertex 17.0939 -3.10768 1.2
      vertex 17.1359 -2.98381 1.2
      vertex 17.1614 -2.85551 1.2
    endloop
  endfacet
  facet normal 0 0 1
    outer loop
      vertex 16.7788 -3.51834 1.2
      vertex 16.8771 -3.4321 1.2
      vertex 16.9633 -3.33376 1.2
    endloop
  endfacet
  facet normal 0 0 1
    outer loop
      vertex 16.67 -3.59102 1.2
      vertex 16.9633 -3.33376 1.2
      vertex 17.1614 -2.85551 1.2
    endloop
  endfacet
  facet normal 0.663783 -0.747925 0
    outer loop
      vertex 16.7796 -3.51763 -1.49707e-07
      vertex 16.7788 -3.51834 1.2
      vertex 16.7788 -3.51834 -1.49706e-07
    endloop
  endfacet
  facet normal 0.659489 -0.751714 -5.10447e-06
    outer loop
      vertex 16.7788 -3.51834 1.2
      vertex 16.7796 -3.51763 -1.49707e-07
      vertex 16.8771 -3.4321 1.2
    endloop
  endfacet
  facet normal 0.555476 -0.831533 0
    outer loop
      vertex 16.67 -3.59102 -1.4963e-07
      vertex 16.7788 -3.51834 1.2
      vertex 16.67 -3.59102 1.2
    endloop
  endfacet
  facet normal 0.555476 -0.831533 0
    outer loop
      vertex 16.7788 -3.51834 1.2
      vertex 16.67 -3.59102 -1.4963e-07
      vertex 16.7788 -3.51834 -1.49706e-07
    endloop
  endfacet
  facet normal 0.831386 0.555696 0
    outer loop
      vertex 16.9639 3.33286 -1.56871e-07
      vertex 17.036 3.22499 1.2
      vertex 17.036 3.22499 -1.56758e-07
    endloop
  endfacet
  facet normal 0.888861 -0.458176 0
    outer loop
      vertex 17.0939 -3.10768 1.2
      vertex 17.0934 -3.10865 -1.50135e-07
      vertex 17.0939 -3.10768 -1.50136e-07
    endloop
  endfacet
  facet normal 0.896724 -0.442591 -1.58741e-05
    outer loop
      vertex 17.0934 -3.10865 -1.50135e-07
      vertex 17.0939 -3.10768 1.2
      vertex 17.036 -3.22499 1.2
    endloop
  endfacet
  facet normal -0.442314 0.89686 0
    outer loop
      vertex -16.5527 3.64887 1.2
      vertex -16.67 3.59102 -1.57141e-07
      vertex -16.67 3.59102 1.2
    endloop
  endfacet
  facet normal -0.442314 0.89686 0
    outer loop
      vertex -16.67 3.59102 -1.57141e-07
      vertex -16.5527 3.64887 1.2
      vertex -16.5527 3.64887 -1.57202e-07
    endloop
  endfacet
  facet normal -0.321382 0.94695 0
    outer loop
      vertex -16.4288 3.69092 1.2
      vertex -16.5527 3.64887 -1.57202e-07
      vertex -16.5527 3.64887 1.2
    endloop
  endfacet
  facet normal -0.321382 0.94695 0
    outer loop
      vertex -16.5527 3.64887 -1.57202e-07
      vertex -16.4288 3.69092 1.2
      vertex -16.4288 3.69092 -1.57246e-07
    endloop
  endfacet
  facet normal 0 0 1
    outer loop
      vertex -17.1359 2.98381 1.2
      vertex -17.036 3.22499 1.2
      vertex -17.0939 3.10768 1.2
    endloop
  endfacet
  facet normal -0 0 1
    outer loop
      vertex -17.17 -2.72499 1.2
      vertex -17.1614 -2.85551 1.2
      vertex -17.17 2.72499 1.2
    endloop
  endfacet
  facet normal -1 0 0
    outer loop
      vertex -17.17 -2.72499 -1.50536e-07
      vertex -17.17 2.72499 1.2
      vertex -17.17 2.72499 -1.56235e-07
    endloop
  endfacet
  facet normal -1 -0 0
    outer loop
      vertex -17.17 2.72499 1.2
      vertex -17.17 -2.72499 -1.50536e-07
      vertex -17.17 -2.72499 1.2
    endloop
  endfacet
  facet normal 0 0 1
    outer loop
      vertex -17.1614 2.85552 1.2
      vertex -16.67 3.59102 1.2
      vertex -17.036 3.22499 1.2
    endloop
  endfacet
  facet normal 0 0 1
    outer loop
      vertex -17.1614 2.85552 1.2
      vertex -17.036 3.22499 1.2
      vertex -17.1359 2.98381 1.2
    endloop
  endfacet
  facet normal -0.659489 0.751714 0
    outer loop
      vertex -16.7788 3.51834 1.2
      vertex -16.8771 3.4321 -1.56975e-07
      vertex -16.8771 3.4321 1.2
    endloop
  endfacet
  facet normal -0.659489 0.751714 0
    outer loop
      vertex -16.8771 3.4321 -1.56975e-07
      vertex -16.7788 3.51834 1.2
      vertex -16.7788 3.51834 -1.57065e-07
    endloop
  endfacet
  facet normal -0.555476 0.831533 0
    outer loop
      vertex -16.67 3.59102 1.2
      vertex -16.7788 3.51834 -1.57065e-07
      vertex -16.7788 3.51834 1.2
    endloop
  endfacet
  facet normal -0.555476 0.831533 0
    outer loop
      vertex -16.7788 3.51834 -1.57065e-07
      vertex -16.67 3.59102 1.2
      vertex -16.67 3.59102 -1.57141e-07
    endloop
  endfacet
  facet normal -0.831386 0.555696 0
    outer loop
      vertex -17.036 3.22499 1.2
      vertex -16.9639 3.33286 -1.56871e-07
      vertex -17.036 3.22499 -1.56758e-07
    endloop
  endfacet
  facet normal -0.756613 -0.653863 0
    outer loop
      vertex -16.9626 -3.33457 -1.49898e-07
      vertex -16.9633 -3.33376 1.2
      vertex -16.9633 -3.33376 -1.49899e-07
    endloop
  endfacet
  facet normal -0.751998 -0.659165 6.27048e-06
    outer loop
      vertex -16.9633 -3.33376 1.2
      vertex -16.9626 -3.33457 -1.49898e-07
      vertex -16.8771 -3.4321 1.2
    endloop
  endfacet
  facet normal 0 0 1
    outer loop
      vertex -16.9633 -3.33376 1.2
      vertex -16.7788 -3.51834 1.2
      vertex -16.67 -3.59102 1.2
    endloop
  endfacet
  facet normal -0.555476 -0.831533 0
    outer loop
      vertex -16.7788 -3.51834 1.2
      vertex -16.67 -3.59102 -1.4963e-07
      vertex -16.67 -3.59102 1.2
    endloop
  endfacet
  facet normal -0.555476 -0.831533 0
    outer loop
      vertex -16.67 -3.59102 -1.4963e-07
      vertex -16.7788 -3.51834 1.2
      vertex -16.7788 -3.51834 -1.49706e-07
    endloop
  endfacet
  facet normal -0.659489 -0.751714 -5.10447e-06
    outer loop
      vertex -16.7796 -3.51763 -1.49707e-07
      vertex -16.7788 -3.51834 1.2
      vertex -16.8771 -3.4321 1.2
    endloop
  endfacet
  facet normal -0.663783 -0.747925 -0
    outer loop
      vertex -16.7788 -3.51834 1.2
      vertex -16.7796 -3.51763 -1.49707e-07
      vertex -16.7788 -3.51834 -1.49706e-07
    endloop
  endfacet
  facet normal -0.442252 -0.896891 -9.78704e-06
    outer loop
      vertex -16.67 -3.59102 1.2
      vertex -16.669 -3.5915 -1.4963e-07
      vertex -16.5527 -3.64886 1.2
    endloop
  endfacet
  facet normal -0.432731 -0.901523 0
    outer loop
      vertex -16.669 -3.5915 -1.4963e-07
      vertex -16.67 -3.59102 1.2
      vertex -16.67 -3.59102 -1.4963e-07
    endloop
  endfacet
  facet normal -0.83205 -0.5547 -0
    outer loop
      vertex -16.9633 -3.33376 1.2
      vertex -16.9639 -3.33286 -1.499e-07
      vertex -16.9633 -3.33376 -1.49899e-07
    endloop
  endfacet
  facet normal -0.831391 -0.555688 -1.0701e-06
    outer loop
      vertex -16.9639 -3.33286 -1.499e-07
      vertex -16.9633 -3.33376 1.2
      vertex -17.036 -3.22499 1.2
    endloop
  endfacet
  facet normal -0.896789 -0.442459 0
    outer loop
      vertex -17.0934 -3.10865 -1.50135e-07
      vertex -17.036 -3.22499 -1.50013e-07
      vertex -17.036 -3.22499 1.2
    endloop
  endfacet
  facet normal -0.946935 -0.321426 -0
    outer loop
      vertex -17.1359 -2.98381 1.2
      vertex -17.1359 -2.98381 -1.50265e-07
      vertex -17.0942 -3.10666 -1.50137e-07
    endloop
  endfacet
  facet normal 0.75196 0.659208 0
    outer loop
      vertex 16.8771 3.4321 1.2
      vertex 16.9626 3.33457 -1.56873e-07
      vertex 16.8771 3.4321 -1.56975e-07
    endloop
  endfacet
  facet normal 0 0 1
    outer loop
      vertex 16.8771 3.4321 1.2
      vertex 17.036 3.22499 1.2
      vertex 16.9633 3.33376 1.2
    endloop
  endfacet
  facet normal 0 0 1
    outer loop
      vertex 16.67 3.59102 1.2
      vertex 17.036 3.22499 1.2
      vertex 16.8771 3.4321 1.2
    endloop
  endfacet
  facet normal 0.442314 0.89686 -0
    outer loop
      vertex 16.67 3.59102 -1.57141e-07
      vertex 16.5527 3.64887 1.2
      vertex 16.67 3.59102 1.2
    endloop
  endfacet
  facet normal 0.442314 0.89686 0
    outer loop
      vertex 16.5527 3.64887 1.2
      vertex 16.67 3.59102 -1.57141e-07
      vertex 16.5527 3.64887 -1.57202e-07
    endloop
  endfacet
  facet normal 0.947042 -0.321109 -3.61821e-05
    outer loop
      vertex 17.0939 -3.10768 1.2
      vertex 17.0942 -3.10666 -1.50137e-07
      vertex 17.1359 -2.98381 1.2
    endloop
  endfacet
  facet normal 0.959366 -0.282166 0
    outer loop
      vertex 17.0942 -3.10666 -1.50137e-07
      vertex 17.0939 -3.10768 1.2
      vertex 17.0939 -3.10768 -1.50136e-07
    endloop
  endfacet
  facet normal 0 0 1
    outer loop
      vertex 16.9633 -3.33376 1.2
      vertex 17.036 -3.22499 1.2
      vertex 17.0939 -3.10768 1.2
    endloop
  endfacet
  facet normal 0 0 1
    outer loop
      vertex 16.9633 -3.33376 1.2
      vertex 17.0939 -3.10768 1.2
      vertex 17.1614 -2.85551 1.2
    endloop
  endfacet
  facet normal -0.980812 0.194955 0
    outer loop
      vertex -17.1614 2.85552 -1.56372e-07
      vertex -17.1359 2.98381 1.2
      vertex -17.1359 2.98381 -1.56506e-07
    endloop
  endfacet
  facet normal -0.980812 0.194955 0
    outer loop
      vertex -17.1359 2.98381 1.2
      vertex -17.1614 2.85552 -1.56372e-07
      vertex -17.1614 2.85552 1.2
    endloop
  endfacet
  facet normal -0.947042 0.321109 0
    outer loop
      vertex -17.1359 2.98381 -1.56506e-07
      vertex -17.0939 3.10768 1.2
      vertex -17.0939 3.10768 -1.56636e-07
    endloop
  endfacet
  facet normal -0.947042 0.321109 0
    outer loop
      vertex -17.0939 3.10768 1.2
      vertex -17.1359 2.98381 -1.56506e-07
      vertex -17.1359 2.98381 1.2
    endloop
  endfacet
  facet normal -0.83205 0.5547 0
    outer loop
      vertex -16.9639 3.33286 -1.56871e-07
      vertex -16.9633 3.33376 1.2
      vertex -16.9633 3.33376 -1.56872e-07
    endloop
  endfacet
  facet normal -0.831391 0.555688 -1.0701e-06
    outer loop
      vertex -16.9633 3.33376 1.2
      vertex -16.9639 3.33286 -1.56871e-07
      vertex -17.036 3.22499 1.2
    endloop
  endfacet
  facet normal -0.756613 0.653863 0
    outer loop
      vertex -16.9633 3.33376 1.2
      vertex -16.9626 3.33457 -1.56873e-07
      vertex -16.9633 3.33376 -1.56872e-07
    endloop
  endfacet
  facet normal -0.751998 0.659165 6.27048e-06
    outer loop
      vertex -16.9626 3.33457 -1.56873e-07
      vertex -16.9633 3.33376 1.2
      vertex -16.8771 3.4321 1.2
    endloop
  endfacet
  facet normal -0.75196 -0.659208 0
    outer loop
      vertex -16.9626 -3.33457 -1.49898e-07
      vertex -16.8771 -3.4321 -1.49796e-07
      vertex -16.8771 -3.4321 1.2
    endloop
  endfacet
  facet normal -0.442333 -0.896851 0
    outer loop
      vertex -16.669 -3.5915 -1.4963e-07
      vertex -16.5527 -3.64886 -1.4957e-07
      vertex -16.5527 -3.64886 1.2
    endloop
  endfacet
  facet normal -0.321378 -0.946951 -0
    outer loop
      vertex -16.5527 -3.64886 1.2
      vertex -16.5527 -3.64886 -1.4957e-07
      vertex -16.4298 -3.69057 -1.49526e-07
    endloop
  endfacet
  facet normal -0.888861 -0.458176 0
    outer loop
      vertex -17.0934 -3.10865 -1.50135e-07
      vertex -17.0939 -3.10768 1.2
      vertex -17.0939 -3.10768 -1.50136e-07
    endloop
  endfacet
  facet normal -0.896724 -0.442591 -1.58741e-05
    outer loop
      vertex -17.0939 -3.10768 1.2
      vertex -17.0934 -3.10865 -1.50135e-07
      vertex -17.036 -3.22499 1.2
    endloop
  endfacet
  facet normal 0 0 1
    outer loop
      vertex -17.0939 -3.10768 1.2
      vertex -17.036 -3.22499 1.2
      vertex -16.9633 -3.33376 1.2
    endloop
  endfacet
  facet normal 0.659489 0.751714 -0
    outer loop
      vertex 16.8771 3.4321 -1.56975e-07
      vertex 16.7788 3.51834 1.2
      vertex 16.8771 3.4321 1.2
    endloop
  endfacet
  facet normal 0.659489 0.751714 0
    outer loop
      vertex 16.7788 3.51834 1.2
      vertex 16.8771 3.4321 -1.56975e-07
      vertex 16.7788 3.51834 -1.57065e-07
    endloop
  endfacet
  facet normal 0 0 1
    outer loop
      vertex 16.67 3.59102 1.2
      vertex 16.8771 3.4321 1.2
      vertex 16.7788 3.51834 1.2
    endloop
  endfacet
  facet normal 0.751998 0.659165 6.27048e-06
    outer loop
      vertex 16.9633 3.33376 1.2
      vertex 16.9626 3.33457 -1.56873e-07
      vertex 16.8771 3.4321 1.2
    endloop
  endfacet
  facet normal 0.756613 0.653863 0
    outer loop
      vertex 16.9626 3.33457 -1.56873e-07
      vertex 16.9633 3.33376 1.2
      vertex 16.9633 3.33376 -1.56872e-07
    endloop
  endfacet
  facet normal 0.83205 0.5547 0
    outer loop
      vertex 16.9633 3.33376 1.2
      vertex 16.9639 3.33286 -1.56871e-07
      vertex 16.9633 3.33376 -1.56872e-07
    endloop
  endfacet
  facet normal 0.831391 0.555688 -1.0701e-06
    outer loop
      vertex 16.9639 3.33286 -1.56871e-07
      vertex 16.9633 3.33376 1.2
      vertex 17.036 3.22499 1.2
    endloop
  endfacet
  facet normal -0.959366 -0.282166 -0
    outer loop
      vertex -17.0939 -3.10768 1.2
      vertex -17.0942 -3.10666 -1.50137e-07
      vertex -17.0939 -3.10768 -1.50136e-07
    endloop
  endfacet
  facet normal -0.947042 -0.321109 -3.61821e-05
    outer loop
      vertex -17.0942 -3.10666 -1.50137e-07
      vertex -17.0939 -3.10768 1.2
      vertex -17.1359 -2.98381 1.2
    endloop
  endfacet
  facet normal 0 0 1
    outer loop
      vertex -17.1614 -2.85551 1.2
      vertex -17.1359 -2.98381 1.2
      vertex -17.0939 -3.10768 1.2
    endloop
  endfacet
  facet normal -0.831386 -0.555696 -0
    outer loop
      vertex -17.036 -3.22499 1.2
      vertex -17.036 -3.22499 -1.50013e-07
      vertex -16.9639 -3.33286 -1.499e-07
    endloop
  endfacet
  facet normal 0.896789 -0.442459 0
    outer loop
      vertex 17.036 -3.22499 1.2
      vertex 17.036 -3.22499 -1.50013e-07
      vertex 17.0934 -3.10865 -1.50135e-07
    endloop
  endfacet
  facet normal -1 0 0
    outer loop
      vertex -15.27 3.72499 1.2
      vertex -15.27 6.2597 -1.59932e-07
      vertex -15.27 3.72499 -1.57281e-07
    endloop
  endfacet
  facet normal -1 0 0
    outer loop
      vertex -15.27 6.2597 -1.59932e-07
      vertex -15.27 3.72499 1.2
      vertex -15.27 6.84615 5.54612
    endloop
  endfacet
  facet normal -1 0 0
    outer loop
      vertex -15.27 2.85552 1.2
      vertex -15.27 6.84615 5.54612
      vertex -15.27 3.72499 1.2
    endloop
  endfacet
  facet normal -1 0 0
    outer loop
      vertex -15.27 2.85552 1.2
      vertex -15.27 -3.04868 6.5924
      vertex -15.27 6.84615 5.54612
    endloop
  endfacet
  facet normal -1 0 -0
    outer loop
      vertex -15.27 -3.04868 6.5924
      vertex -15.27 2.85552 1.2
      vertex -15.27 -3.61888 1.2
    endloop
  endfacet
  facet normal -1 0 0
    outer loop
      vertex -15.27 -3.74577 -1.49468e-07
      vertex -15.27 -3.72499 0.196482
      vertex -15.27 -3.72499 -1.4949e-07
    endloop
  endfacet
  facet normal 1 0 0
    outer loop
      vertex 15.27 6.84615 5.54612
      vertex 15.27 3.72499 1.2
      vertex 15.27 6.2597 -1.59932e-07
    endloop
  endfacet
  facet normal 1 0 0
    outer loop
      vertex 15.27 6.84615 5.54612
      vertex 15.27 2.85552 1.2
      vertex 15.27 3.72499 1.2
    endloop
  endfacet
  facet normal 1 0 0
    outer loop
      vertex 15.27 -3.04868 6.5924
      vertex 15.27 2.85552 1.2
      vertex 15.27 6.84615 5.54612
    endloop
  endfacet
  facet normal 1 0 0
    outer loop
      vertex 15.27 2.85552 1.2
      vertex 15.27 -3.04868 6.5924
      vertex 15.27 -3.61888 1.2
    endloop
  endfacet
  facet normal 1 0 0
    outer loop
      vertex 15.27 6.2597 -1.59932e-07
      vertex 15.27 3.72499 1.2
      vertex 15.27 3.72499 -1.57281e-07
    endloop
  endfacet
  facet normal 1 -0 0
    outer loop
      vertex 15.27 -3.74577 -1.49468e-07
      vertex 15.27 -3.72499 -1.4949e-07
      vertex 15.27 -3.72499 0.196482
    endloop
  endfacet
  facet normal 0 0.105154 0.994456
    outer loop
      vertex -14.07 6.84615 5.54612
      vertex -15.27 6.84615 5.54612
      vertex -14.07 1.87339 6.07194
    endloop
  endfacet
  facet normal 0 0.105154 0.994456
    outer loop
      vertex 14.07 1.87339 6.07194
      vertex 15.27 6.84615 5.54612
      vertex 14.07 6.84615 5.54612
    endloop
  endfacet
  facet normal 1.48911e-08 0.105154 0.994456
    outer loop
      vertex 15.27 6.84615 5.54612
      vertex 14.07 1.87339 6.07194
      vertex 15.27 -3.04868 6.5924
    endloop
  endfacet
  facet normal -2.23384e-07 0.105154 0.994456
    outer loop
      vertex 14.0379 1.38663 6.12341
      vertex 15.27 -3.04868 6.5924
      vertex 14.07 1.87339 6.07194
    endloop
  endfacet
  facet normal 4.30095e-06 0.105155 0.994456
    outer loop
      vertex 13.9422 0.908202 6.174
      vertex 15.27 -3.04868 6.5924
      vertex 14.0379 1.38663 6.12341
    endloop
  endfacet
  facet normal -9.60908e-06 0.10515 0.994456
    outer loop
      vertex 13.7845 0.446285 6.22284
      vertex 15.27 -3.04868 6.5924
      vertex 13.9422 0.908202 6.174
    endloop
  endfacet
  facet normal -4.56884e-06 0.105153 0.994456
    outer loop
      vertex 13.5676 0.00878216 6.2691
      vertex 15.27 -3.04868 6.5924
      vertex 13.7845 0.446285 6.22284
    endloop
  endfacet
  facet normal 4.52312e-06 0.105158 0.994456
    outer loop
      vertex 13.2951 -0.396809 6.31199
      vertex 15.27 -3.04868 6.5924
      vertex 13.5676 0.00878216 6.2691
    endloop
  endfacet
  facet normal -2.27164e-06 0.105153 0.994456
    outer loop
      vertex 12.9716 -0.763569 6.35077
      vertex 15.27 -3.04868 6.5924
      vertex 13.2951 -0.396809 6.31199
    endloop
  endfacet
  facet normal 5.8246e-07 0.105155 0.994456
    outer loop
      vertex 12.6028 -1.0852 6.38478
      vertex 15.27 -3.04868 6.5924
      vertex 12.9716 -0.763569 6.35077
    endloop
  endfacet
  facet normal 5.42867e-06 0.105162 0.994455
    outer loop
      vertex 12.195 -1.3562 6.41344
      vertex 15.27 -3.04868 6.5924
      vertex 12.6028 -1.0852 6.38478
    endloop
  endfacet
  facet normal -4.90169e-06 0.105143 0.994457
    outer loop
      vertex 11.755 -1.57196 6.43625
      vertex 15.27 -3.04868 6.5924
      vertex 12.195 -1.3562 6.41344
    endloop
  endfacet
  facet normal 1.01218e-06 0.105157 0.994456
    outer loop
      vertex 11.2905 -1.72875 6.45283
      vertex 15.27 -3.04868 6.5924
      vertex 11.755 -1.57196 6.43625
    endloop
  endfacet
  facet normal -2.92871e-06 0.105145 0.994457
    outer loop
      vertex 10.8094 -1.82391 6.46289
      vertex 15.27 -3.04868 6.5924
      vertex 11.2905 -1.72875 6.45283
    endloop
  endfacet
  facet normal 9.46334e-06 0.10519 0.994452
    outer loop
      vertex 10.32 -1.85582 6.46627
      vertex 15.27 -3.04868 6.5924
      vertex 10.8094 -1.82391 6.46289
    endloop
  endfacet
  facet normal -0 0.105151 0.994456
    outer loop
      vertex -10.32 -1.85582 6.46627
      vertex 15.27 -3.04868 6.5924
      vertex 10.32 -1.85582 6.46627
    endloop
  endfacet
  facet normal -1.48911e-08 0.105154 0.994456
    outer loop
      vertex -15.27 -3.04868 6.5924
      vertex -14.07 1.87339 6.07194
      vertex -15.27 6.84615 5.54612
    endloop
  endfacet
  facet normal 2.23384e-07 0.105154 0.994456
    outer loop
      vertex -14.07 1.87339 6.07194
      vertex -15.27 -3.04868 6.5924
      vertex -14.0379 1.38663 6.12341
    endloop
  endfacet
  facet normal 0 0.105151 0.994456
    outer loop
      vertex -10.32 -1.85582 6.46627
      vertex -15.27 -3.04868 6.5924
      vertex 15.27 -3.04868 6.5924
    endloop
  endfacet
  facet normal -9.46334e-06 0.10519 0.994452
    outer loop
      vertex -10.8094 -1.82391 6.46289
      vertex -15.27 -3.04868 6.5924
      vertex -10.32 -1.85582 6.46627
    endloop
  endfacet
  facet normal 2.92871e-06 0.105145 0.994457
    outer loop
      vertex -11.2905 -1.72875 6.45283
      vertex -15.27 -3.04868 6.5924
      vertex -10.8094 -1.82391 6.46289
    endloop
  endfacet
  facet normal -1.01218e-06 0.105157 0.994456
    outer loop
      vertex -11.755 -1.57196 6.43625
      vertex -15.27 -3.04868 6.5924
      vertex -11.2905 -1.72875 6.45283
    endloop
  endfacet
  facet normal 4.90169e-06 0.105143 0.994457
    outer loop
      vertex -12.195 -1.3562 6.41344
      vertex -15.27 -3.04868 6.5924
      vertex -11.755 -1.57196 6.43625
    endloop
  endfacet
  facet normal -5.42867e-06 0.105162 0.994455
    outer loop
      vertex -12.6028 -1.0852 6.38478
      vertex -15.27 -3.04868 6.5924
      vertex -12.195 -1.3562 6.41344
    endloop
  endfacet
  facet normal -5.8246e-07 0.105155 0.994456
    outer loop
      vertex -12.9716 -0.763569 6.35077
      vertex -15.27 -3.04868 6.5924
      vertex -12.6028 -1.0852 6.38478
    endloop
  endfacet
  facet normal 2.27164e-06 0.105153 0.994456
    outer loop
      vertex -13.2951 -0.396809 6.31199
      vertex -15.27 -3.04868 6.5924
      vertex -12.9716 -0.763569 6.35077
    endloop
  endfacet
  facet normal -4.52312e-06 0.105158 0.994456
    outer loop
      vertex -13.5676 0.00878216 6.2691
      vertex -15.27 -3.04868 6.5924
      vertex -13.2951 -0.396809 6.31199
    endloop
  endfacet
  facet normal 4.56884e-06 0.105153 0.994456
    outer loop
      vertex -13.7845 0.446285 6.22284
      vertex -15.27 -3.04868 6.5924
      vertex -13.5676 0.00878216 6.2691
    endloop
  endfacet
  facet normal 9.60908e-06 0.10515 0.994456
    outer loop
      vertex -13.9422 0.908202 6.174
      vertex -15.27 -3.04868 6.5924
      vertex -13.7845 0.446285 6.22284
    endloop
  endfacet
  facet normal -4.30095e-06 0.105155 0.994456
    outer loop
      vertex -14.0379 1.38663 6.12341
      vertex -15.27 -3.04868 6.5924
      vertex -13.9422 0.908202 6.174
    endloop
  endfacet
  facet normal 0 -0.994456 0.105155
    outer loop
      vertex -15.27 -3.61888 1.2
      vertex 15.27 -3.04868 6.5924
      vertex -15.27 -3.04868 6.5924
    endloop
  endfacet
  facet normal 0 -0.994456 0.105155
    outer loop
      vertex 15.27 -3.04868 6.5924
      vertex -15.27 -3.61888 1.2
      vertex 15.27 -3.61888 1.2
    endloop
  endfacet
  facet normal 0 -0.994454 0.105174
    outer loop
      vertex -15.27 -3.74577 -1.49468e-07
      vertex 15.27 -3.72499 0.196482
      vertex -15.27 -3.72499 0.196482
    endloop
  endfacet
  facet normal 0 -0.994454 0.105174
    outer loop
      vertex 15.27 -3.72499 0.196482
      vertex -15.27 -3.74577 -1.49468e-07
      vertex 15.27 -3.74577 -1.49468e-07
    endloop
  endfacet
  facet normal 0 0.994457 -0.105148
    outer loop
      vertex 15.27 6.84615 5.54612
      vertex 13.27 6.76098 4.74061
      vertex 14.07 6.84615 5.54612
    endloop
  endfacet
  facet normal 2.53589e-06 0.994456 -0.105154
    outer loop
      vertex 15.27 6.2597 -1.59932e-07
      vertex 13.27 6.76098 4.74061
      vertex 15.27 6.84615 5.54612
    endloop
  endfacet
  facet normal 0 0.994456 -0.105155
    outer loop
      vertex 13.27 6.76098 4.74061
      vertex 15.27 6.2597 -1.59932e-07
      vertex 13.27 6.2597 -1.59932e-07
    endloop
  endfacet
  facet normal 0 0.994457 -0.105148
    outer loop
      vertex -13.27 6.76098 4.74061
      vertex -15.27 6.84615 5.54612
      vertex -14.07 6.84615 5.54612
    endloop
  endfacet
  facet normal 0 0.994456 -0.105155
    outer loop
      vertex -15.27 6.2597 -1.59932e-07
      vertex -13.27 6.76098 4.74061
      vertex -13.27 6.2597 -1.59932e-07
    endloop
  endfacet
  facet normal -2.53589e-06 0.994456 -0.105154
    outer loop
      vertex -13.27 6.76098 4.74061
      vertex -15.27 6.2597 -1.59932e-07
      vertex -15.27 6.84615 5.54612
    endloop
  endfacet
  facet normal 1.67269e-13 -1.0459e-09 -1
    outer loop
      vertex -13.1422 0.255853 -1.53653e-07
      vertex -17.17 -2.72499 -1.50536e-07
      vertex -13.2379 0.73963 -1.54159e-07
    endloop
  endfacet
  facet normal -1.90463e-14 -1.04569e-09 -1
    outer loop
      vertex -17.17 2.72499 -1.56235e-07
      vertex -13.2379 0.73963 -1.54159e-07
      vertex -17.17 -2.72499 -1.50536e-07
    endloop
  endfacet
  facet normal -7.10874e-11 -1.11709e-09 -1
    outer loop
      vertex -17.17 -2.72499 -1.50536e-07
      vertex -16.17 -3.72499 -1.4949e-07
      vertex -16.1711 -3.72492 -1.4949e-07
    endloop
  endfacet
  facet normal 9.82795e-13 -1.04509e-09 -1
    outer loop
      vertex -17.17 -2.72499 -1.50536e-07
      vertex -16.1711 -3.72492 -1.4949e-07
      vertex -16.3005 -3.71643 -1.49499e-07
    endloop
  endfacet
  facet normal -8.91141e-14 -1.04583e-09 -1
    outer loop
      vertex -13.2379 0.73963 -1.54159e-07
      vertex -17.17 2.72499 -1.56235e-07
      vertex -15.27 3.72499 -1.57281e-07
    endloop
  endfacet
  facet normal -4.40122e-12 -1.04981e-09 -1
    outer loop
      vertex -17.17 -2.72499 -1.50536e-07
      vertex -16.3005 -3.71643 -1.49499e-07
      vertex -16.4278 -3.69113 -1.49525e-07
    endloop
  endfacet
  facet normal 2.5e-09 7.14286e-09 -1
    outer loop
      vertex -16.4298 -3.69057 -1.49526e-07
      vertex -16.4278 -3.69113 -1.49525e-07
      vertex -16.4288 -3.69092 -1.49526e-07
    endloop
  endfacet
  facet normal -0 -1.046e-09 -1
    outer loop
      vertex -15.27 3.72499 -1.57281e-07
      vertex -17.17 2.72499 -1.56235e-07
      vertex -16.17 3.72499 -1.57281e-07
    endloop
  endfacet
  facet normal 2.63726e-10 -8.43835e-10 -1
    outer loop
      vertex -16.4278 -3.69113 -1.49525e-07
      vertex -16.4298 -3.69057 -1.49526e-07
      vertex -17.17 -2.72499 -1.50536e-07
    endloop
  endfacet
  facet normal 4.08242e-12 -1.04287e-09 -1
    outer loop
      vertex -17.17 -2.72499 -1.50536e-07
      vertex -16.4298 -3.69057 -1.49526e-07
      vertex -16.5527 -3.64886 -1.4957e-07
    endloop
  endfacet
  facet normal -3.79203e-13 -1.04562e-09 -1
    outer loop
      vertex -16.17 3.72499 -1.57281e-07
      vertex -17.17 2.72499 -1.56235e-07
      vertex -16.3005 3.71643 -1.57272e-07
    endloop
  endfacet
  facet normal 3.11503e-13 -1.04539e-09 -1
    outer loop
      vertex -17.17 -2.72499 -1.50536e-07
      vertex -16.5527 -3.64886 -1.4957e-07
      vertex -16.669 -3.5915 -1.4963e-07
    endloop
  endfacet
  facet normal -1.77846e-09 -3.70513e-09 -1
    outer loop
      vertex -16.7796 -3.51763 -1.49707e-07
      vertex -16.669 -3.5915 -1.4963e-07
      vertex -16.67 -3.59102 -1.4963e-07
    endloop
  endfacet
  facet normal 6.44091e-12 -1.0516e-09 -1
    outer loop
      vertex -16.3005 3.71643 -1.57272e-07
      vertex -17.17 2.72499 -1.56235e-07
      vertex -16.4288 3.69092 -1.57246e-07
    endloop
  endfacet
  facet normal -9.79899e-10 -2.51256e-09 -1
    outer loop
      vertex -16.7796 -3.51763 -1.49707e-07
      vertex -16.67 -3.59102 -1.4963e-07
      vertex -16.7788 -3.51834 -1.49706e-07
    endloop
  endfacet
  facet normal 1.31396e-13 -1.04676e-09 -1
    outer loop
      vertex -16.4288 3.69092 -1.57246e-07
      vertex -17.17 2.72499 -1.56235e-07
      vertex -16.5527 3.64887 -1.57202e-07
    endloop
  endfacet
  facet normal -3.48394e-12 -1.04759e-09 -1
    outer loop
      vertex -16.669 -3.5915 -1.4963e-07
      vertex -16.7796 -3.51763 -1.49707e-07
      vertex -17.17 -2.72499 -1.50536e-07
    endloop
  endfacet
  facet normal -8.1886e-12 -1.04991e-09 -1
    outer loop
      vertex -17.17 -2.72499 -1.50536e-07
      vertex -16.7796 -3.51763 -1.49707e-07
      vertex -16.8771 -3.4321 -1.49796e-07
    endloop
  endfacet
  facet normal -5.72155e-12 -1.04285e-09 -1
    outer loop
      vertex -16.5527 3.64887 -1.57202e-07
      vertex -17.17 2.72499 -1.56235e-07
      vertex -16.67 3.59102 -1.57141e-07
    endloop
  endfacet
  facet normal -1.47313e-12 -1.04712e-09 -1
    outer loop
      vertex -17.17 -2.72499 -1.50536e-07
      vertex -16.8771 -3.4321 -1.49796e-07
      vertex -16.9626 -3.33457 -1.49898e-07
    endloop
  endfacet
  facet normal 5.14822e-13 -1.04645e-09 -1
    outer loop
      vertex -16.67 3.59102 -1.57141e-07
      vertex -17.17 2.72499 -1.56235e-07
      vertex -16.7788 3.51834 -1.57065e-07
    endloop
  endfacet
  facet normal 6.25e-10 -6.94444e-10 -1
    outer loop
      vertex -16.9639 -3.33286 -1.499e-07
      vertex -16.9626 -3.33457 -1.49898e-07
      vertex -16.9633 -3.33376 -1.49899e-07
    endloop
  endfacet
  facet normal 4.01589e-12 -1.04818e-09 -1
    outer loop
      vertex -16.7788 3.51834 -1.57065e-07
      vertex -17.17 2.72499 -1.56235e-07
      vertex -16.8771 3.4321 -1.56975e-07
    endloop
  endfacet
  facet normal 2.92782e-10 -9.47008e-10 -1
    outer loop
      vertex -16.9626 -3.33457 -1.49898e-07
      vertex -16.9639 -3.33286 -1.499e-07
      vertex -17.17 -2.72499 -1.50536e-07
    endloop
  endfacet
  facet normal 1.47313e-12 -1.04712e-09 -1
    outer loop
      vertex -16.8771 3.4321 -1.56975e-07
      vertex -17.17 2.72499 -1.56235e-07
      vertex -16.9626 3.33457 -1.56873e-07
    endloop
  endfacet
  facet normal 3.88925e-12 -1.04496e-09 -1
    outer loop
      vertex -17.17 -2.72499 -1.50536e-07
      vertex -16.9639 -3.33286 -1.499e-07
      vertex -17.036 -3.22499 -1.50013e-07
    endloop
  endfacet
  facet normal -2.92782e-10 -9.47008e-10 -1
    outer loop
      vertex -16.9639 3.33286 -1.56871e-07
      vertex -16.9626 3.33457 -1.56873e-07
      vertex -17.17 2.72499 -1.56235e-07
    endloop
  endfacet
  facet normal 1.17601e-11 -1.04285e-09 -1
    outer loop
      vertex -17.17 -2.72499 -1.50536e-07
      vertex -17.036 -3.22499 -1.50013e-07
      vertex -17.0934 -3.10865 -1.50135e-07
    endloop
  endfacet
  facet normal 2.28311e-10 -9.13242e-10 -1
    outer loop
      vertex -17.0942 -3.10666 -1.50137e-07
      vertex -17.0934 -3.10865 -1.50135e-07
      vertex -17.0939 -3.10768 -1.50136e-07
    endloop
  endfacet
  facet normal -6.25e-10 -6.94444e-10 -1
    outer loop
      vertex -16.9626 3.33457 -1.56873e-07
      vertex -16.9639 3.33286 -1.56871e-07
      vertex -16.9633 3.33376 -1.56872e-07
    endloop
  endfacet
  facet normal -1.98519e-10 -1.08483e-09 -1
    outer loop
      vertex -17.0934 -3.10865 -1.50135e-07
      vertex -17.0942 -3.10666 -1.50137e-07
      vertex -17.17 -2.72499 -1.50536e-07
    endloop
  endfacet
  facet normal -2.47425e-11 -1.05032e-09 -1
    outer loop
      vertex -17.17 -2.72499 -1.50536e-07
      vertex -17.0942 -3.10666 -1.50137e-07
      vertex -17.1359 -2.98381 -1.50265e-07
    endloop
  endfacet
  facet normal -3.88925e-12 -1.04496e-09 -1
    outer loop
      vertex -16.9639 3.33286 -1.56871e-07
      vertex -17.17 2.72499 -1.56235e-07
      vertex -17.036 3.22499 -1.56758e-07
    endloop
  endfacet
  facet normal -2.66967e-11 -1.05058e-09 -1
    outer loop
      vertex -17.17 -2.72499 -1.50536e-07
      vertex -17.1359 -2.98381 -1.50265e-07
      vertex -17.1612 -2.85657 -1.50398e-07
    endloop
  endfacet
  facet normal 9.25926e-11 -9.25926e-10 -1
    outer loop
      vertex -17.1615 -2.85444 -1.504e-07
      vertex -17.1612 -2.85657 -1.50398e-07
      vertex -17.1614 -2.85551 -1.50399e-07
    endloop
  endfacet
  facet normal -1.4848e-09 -1.14809e-09 -1
    outer loop
      vertex -17.17 -2.72499 -1.50536e-07
      vertex -17.1612 -2.85657 -1.50398e-07
      vertex -17.1615 -2.85444 -1.504e-07
    endloop
  endfacet
  facet normal 2.66907e-11 -1.05315e-09 -1
    outer loop
      vertex -17.036 3.22499 -1.56758e-07
      vertex -17.17 2.72499 -1.56235e-07
      vertex -17.0939 3.10768 -1.56636e-07
    endloop
  endfacet
  facet normal -1.171e-11 -1.04552e-09 -1
    outer loop
      vertex -17.0939 3.10768 -1.56636e-07
      vertex -17.17 2.72499 -1.56235e-07
      vertex -17.1359 2.98381 -1.56506e-07
    endloop
  endfacet
  facet normal 3.80681e-11 -1.05208e-09 -1
    outer loop
      vertex -17.1359 2.98381 -1.56506e-07
      vertex -17.17 2.72499 -1.56235e-07
      vertex -17.1614 2.85552 -1.56372e-07
    endloop
  endfacet
  facet normal -7.36172e-12 -1.05871e-09 -1
    outer loop
      vertex 11.8028 -1.75984 -1.51545e-07
      vertex 15.27 -3.72499 -1.4949e-07
      vertex 15.27 -3.74577 -1.49468e-07
    endloop
  endfacet
  facet normal 6.75073e-15 -1.04577e-09 -1
    outer loop
      vertex 15.27 -3.72499 -1.4949e-07
      vertex 13.2379 0.73963 -1.54159e-07
      vertex 15.27 3.72499 -1.57281e-07
    endloop
  endfacet
  facet normal 1.37055e-13 -1.04577e-09 -1
    outer loop
      vertex 13.27 6.2597 -1.59932e-07
      vertex 15.27 3.72499 -1.57281e-07
      vertex 13.27 1.23183 -1.54674e-07
    endloop
  endfacet
  facet normal 8.97863e-13 -1.04638e-09 -1
    outer loop
      vertex 15.27 3.72499 -1.57281e-07
      vertex 13.2379 0.73963 -1.54159e-07
      vertex 13.27 1.23183 -1.54674e-07
    endloop
  endfacet
  facet normal -2.43137e-13 -1.04589e-09 -1
    outer loop
      vertex 15.27 -3.72499 -1.4949e-07
      vertex 13.1422 0.255853 -1.53653e-07
      vertex 13.2379 0.73963 -1.54159e-07
    endloop
  endfacet
  facet normal 1.11676e-12 -1.04516e-09 -1
    outer loop
      vertex 15.27 -3.72499 -1.4949e-07
      vertex 12.9845 -0.211229 -1.53165e-07
      vertex 13.1422 0.255853 -1.53653e-07
    endloop
  endfacet
  facet normal -6.05333e-13 -1.04628e-09 -1
    outer loop
      vertex 15.27 -3.72499 -1.4949e-07
      vertex 12.7676 -0.653623 -1.52702e-07
      vertex 12.9845 -0.211229 -1.53165e-07
    endloop
  endfacet
  facet normal -1.54847e-13 -1.04591e-09 -1
    outer loop
      vertex 15.27 -3.72499 -1.4949e-07
      vertex 12.4951 -1.06375 -1.52273e-07
      vertex 12.7676 -0.653623 -1.52702e-07
    endloop
  endfacet
  facet normal -2.42189e-13 -1.04601e-09 -1
    outer loop
      vertex 15.27 -3.72499 -1.4949e-07
      vertex 12.1716 -1.43461 -1.51885e-07
      vertex 12.4951 -1.06375 -1.52273e-07
    endloop
  endfacet
  facet normal 1.0616e-13 -1.04553e-09 -1
    outer loop
      vertex 15.27 -3.72499 -1.4949e-07
      vertex 11.8028 -1.75984 -1.51545e-07
      vertex 12.1716 -1.43461 -1.51885e-07
    endloop
  endfacet
  facet normal 6.61135e-13 -1.0447e-09 -1
    outer loop
      vertex 15.27 -3.74577 -1.49468e-07
      vertex 11.395 -2.03386 -1.51259e-07
      vertex 11.8028 -1.75984 -1.51545e-07
    endloop
  endfacet
  facet normal -7.92531e-13 -1.04799e-09 -1
    outer loop
      vertex 15.27 -3.74577 -1.49468e-07
      vertex 10.955 -2.25204 -1.5103e-07
      vertex 11.395 -2.03386 -1.51259e-07
    endloop
  endfacet
  facet normal 8.63422e-13 -1.04321e-09 -1
    outer loop
      vertex 15.27 -3.74577 -1.49468e-07
      vertex 10.4906 -2.41059 -1.50865e-07
      vertex 10.955 -2.25204 -1.5103e-07
    endloop
  endfacet
  facet normal -3.93602e-13 -1.04771e-09 -1
    outer loop
      vertex 15.27 -3.74577 -1.49468e-07
      vertex 10.0095 -2.50681 -1.50764e-07
      vertex 10.4906 -2.41059 -1.50865e-07
    endloop
  endfacet
  facet normal -3.89983e-13 -1.04769e-09 -1
    outer loop
      vertex 15.27 -3.74577 -1.49468e-07
      vertex 9.51999 -2.53908 -1.5073e-07
      vertex 10.0095 -2.50681 -1.50764e-07
    endloop
  endfacet
  facet normal 0 -1.04584e-09 -1
    outer loop
      vertex 15.27 -3.74577 -1.49468e-07
      vertex -9.51999 -2.53908 -1.5073e-07
      vertex 9.51999 -2.53908 -1.5073e-07
    endloop
  endfacet
  facet normal 0 -1.04584e-09 -1
    outer loop
      vertex -15.27 -3.74577 -1.49468e-07
      vertex -9.51999 -2.53908 -1.5073e-07
      vertex 15.27 -3.74577 -1.49468e-07
    endloop
  endfacet
  facet normal 3.89983e-13 -1.04769e-09 -1
    outer loop
      vertex -15.27 -3.74577 -1.49468e-07
      vertex -10.0095 -2.50681 -1.50764e-07
      vertex -9.51999 -2.53908 -1.5073e-07
    endloop
  endfacet
  facet normal 3.93602e-13 -1.04771e-09 -1
    outer loop
      vertex -15.27 -3.74577 -1.49468e-07
      vertex -10.4906 -2.41059 -1.50865e-07
      vertex -10.0095 -2.50681 -1.50764e-07
    endloop
  endfacet
  facet normal -8.63422e-13 -1.04321e-09 -1
    outer loop
      vertex -15.27 -3.74577 -1.49468e-07
      vertex -10.955 -2.25204 -1.5103e-07
      vertex -10.4906 -2.41059 -1.50865e-07
    endloop
  endfacet
  facet normal 7.92531e-13 -1.04799e-09 -1
    outer loop
      vertex -15.27 -3.74577 -1.49468e-07
      vertex -11.395 -2.03386 -1.51259e-07
      vertex -10.955 -2.25204 -1.5103e-07
    endloop
  endfacet
  facet normal -6.61135e-13 -1.0447e-09 -1
    outer loop
      vertex -15.27 -3.74577 -1.49468e-07
      vertex -11.8028 -1.75984 -1.51545e-07
      vertex -11.395 -2.03386 -1.51259e-07
    endloop
  endfacet
  facet normal 7.36172e-12 -1.05871e-09 -1
    outer loop
      vertex -15.27 -3.72499 -1.4949e-07
      vertex -11.8028 -1.75984 -1.51545e-07
      vertex -15.27 -3.74577 -1.49468e-07
    endloop
  endfacet
  facet normal -1.0616e-13 -1.04553e-09 -1
    outer loop
      vertex -11.8028 -1.75984 -1.51545e-07
      vertex -15.27 -3.72499 -1.4949e-07
      vertex -12.1716 -1.43461 -1.51885e-07
    endloop
  endfacet
  facet normal 2.42189e-13 -1.04601e-09 -1
    outer loop
      vertex -12.1716 -1.43461 -1.51885e-07
      vertex -15.27 -3.72499 -1.4949e-07
      vertex -12.4951 -1.06375 -1.52273e-07
    endloop
  endfacet
  facet normal 1.54847e-13 -1.04591e-09 -1
    outer loop
      vertex -12.4951 -1.06375 -1.52273e-07
      vertex -15.27 -3.72499 -1.4949e-07
      vertex -12.7676 -0.653623 -1.52702e-07
    endloop
  endfacet
  facet normal 6.05333e-13 -1.04628e-09 -1
    outer loop
      vertex -12.7676 -0.653623 -1.52702e-07
      vertex -15.27 -3.72499 -1.4949e-07
      vertex -12.9845 -0.211229 -1.53165e-07
    endloop
  endfacet
  facet normal 0 -1.046e-09 -1
    outer loop
      vertex -17.17 -2.72499 -1.50536e-07
      vertex -15.27 -3.72499 -1.4949e-07
      vertex -16.17 -3.72499 -1.4949e-07
    endloop
  endfacet
  facet normal 4.39658e-14 -1.04592e-09 -1
    outer loop
      vertex -15.27 -3.72499 -1.4949e-07
      vertex -17.17 -2.72499 -1.50536e-07
      vertex -12.9845 -0.211229 -1.53165e-07
    endloop
  endfacet
  facet normal -5.28712e-13 -1.04496e-09 -1
    outer loop
      vertex -12.9845 -0.211229 -1.53165e-07
      vertex -17.17 -2.72499 -1.50536e-07
      vertex -13.1422 0.255853 -1.53653e-07
    endloop
  endfacet
  facet normal -8.97863e-13 -1.04638e-09 -1
    outer loop
      vertex -13.2379 0.73963 -1.54159e-07
      vertex -15.27 3.72499 -1.57281e-07
      vertex -13.27 1.23183 -1.54674e-07
    endloop
  endfacet
  facet normal -1.37055e-13 -1.04577e-09 -1
    outer loop
      vertex -13.27 1.23183 -1.54674e-07
      vertex -15.27 3.72499 -1.57281e-07
      vertex -13.27 6.2597 -1.59932e-07
    endloop
  endfacet
  facet normal -0 -1.04588e-09 -1
    outer loop
      vertex -13.27 6.2597 -1.59932e-07
      vertex -15.27 3.72499 -1.57281e-07
      vertex -15.27 6.2597 -1.59932e-07
    endloop
  endfacet
  facet normal 4.84884e-12 -1.05092e-09 -1
    outer loop
      vertex 16.1711 -3.72492 -1.4949e-07
      vertex 17.17 -2.72499 -1.50536e-07
      vertex 17.1615 -2.85444 -1.504e-07
    endloop
  endfacet
  facet normal -9.25926e-11 -9.25926e-10 -1
    outer loop
      vertex 17.1612 -2.85657 -1.50398e-07
      vertex 17.1615 -2.85444 -1.504e-07
      vertex 17.1614 -2.85551 -1.50399e-07
    endloop
  endfacet
  facet normal -1.62152e-13 -1.04569e-09 -1
    outer loop
      vertex 17.17 -2.72499 -1.50536e-07
      vertex 15.27 -3.72499 -1.4949e-07
      vertex 17.17 2.72499 -1.56235e-07
    endloop
  endfacet
  facet normal -1.06762e-10 -9.2393e-10 -1
    outer loop
      vertex 16.1711 -3.72492 -1.4949e-07
      vertex 17.1615 -2.85444 -1.504e-07
      vertex 17.1612 -2.85657 -1.50398e-07
    endloop
  endfacet
  facet normal -4.16975e-13 -1.04519e-09 -1
    outer loop
      vertex 16.1711 -3.72492 -1.4949e-07
      vertex 17.1612 -2.85657 -1.50398e-07
      vertex 17.1359 -2.98381 -1.50265e-07
    endloop
  endfacet
  facet normal 1.18621e-13 -1.04577e-09 -1
    outer loop
      vertex 15.27 3.72499 -1.57281e-07
      vertex 17.17 2.72499 -1.56235e-07
      vertex 15.27 -3.72499 -1.4949e-07
    endloop
  endfacet
  facet normal -3.95645e-12 -1.04058e-09 -1
    outer loop
      vertex 16.1711 -3.72492 -1.4949e-07
      vertex 17.1359 -2.98381 -1.50265e-07
      vertex 17.0942 -3.10666 -1.50137e-07
    endloop
  endfacet
  facet normal -2.28311e-10 -9.13242e-10 -1
    outer loop
      vertex 17.0934 -3.10865 -1.50135e-07
      vertex 17.0942 -3.10666 -1.50137e-07
      vertex 17.0939 -3.10768 -1.50136e-07
    endloop
  endfacet
  facet normal -0 -1.046e-09 -1
    outer loop
      vertex 16.17 3.72499 -1.57281e-07
      vertex 17.17 2.72499 -1.56235e-07
      vertex 15.27 3.72499 -1.57281e-07
    endloop
  endfacet
  facet normal -3.80002e-11 -9.89749e-10 -1
    outer loop
      vertex 16.1711 -3.72492 -1.4949e-07
      vertex 17.0942 -3.10666 -1.50137e-07
      vertex 17.0934 -3.10865 -1.50135e-07
    endloop
  endfacet
  facet normal 2.02485e-12 -1.04965e-09 -1
    outer loop
      vertex 16.1711 -3.72492 -1.4949e-07
      vertex 17.0934 -3.10865 -1.50135e-07
      vertex 17.036 -3.22499 -1.50013e-07
    endloop
  endfacet
  facet normal -3.81875e-12 -1.04982e-09 -1
    outer loop
      vertex 17.17 2.72499 -1.56235e-07
      vertex 16.17 3.72499 -1.57281e-07
      vertex 17.1614 2.85552 -1.56372e-07
    endloop
  endfacet
  facet normal 1.32887e-12 -1.04845e-09 -1
    outer loop
      vertex 16.1711 -3.72492 -1.4949e-07
      vertex 17.036 -3.22499 -1.50013e-07
      vertex 16.9639 -3.33286 -1.499e-07
    endloop
  endfacet
  facet normal 1.01538e-12 -1.04431e-09 -1
    outer loop
      vertex 17.1614 2.85552 -1.56372e-07
      vertex 16.17 3.72499 -1.57281e-07
      vertex 17.1359 2.98381 -1.56506e-07
    endloop
  endfacet
  facet normal -6.25e-10 -6.94444e-10 -1
    outer loop
      vertex 16.9626 -3.33457 -1.49898e-07
      vertex 16.9639 -3.33286 -1.499e-07
      vertex 16.9633 -3.33376 -1.49899e-07
    endloop
  endfacet
  facet normal -4.00095e-12 -1.05084e-09 -1
    outer loop
      vertex 17.1359 2.98381 -1.56506e-07
      vertex 16.17 3.72499 -1.57281e-07
      vertex 17.0939 3.10768 -1.56636e-07
    endloop
  endfacet
  facet normal 9.81312e-11 -1.24419e-09 -1
    outer loop
      vertex 16.1711 -3.72492 -1.4949e-07
      vertex 16.9639 -3.33286 -1.499e-07
      vertex 16.9626 -3.33457 -1.49898e-07
    endloop
  endfacet
  facet normal 4.86134e-12 -1.03758e-09 -1
    outer loop
      vertex 17.0939 3.10768 -1.56636e-07
      vertex 16.17 3.72499 -1.57281e-07
      vertex 17.036 3.22499 -1.56758e-07
    endloop
  endfacet
  facet normal 5.35371e-13 -1.0463e-09 -1
    outer loop
      vertex 16.1711 -3.72492 -1.4949e-07
      vertex 16.9626 -3.33457 -1.49898e-07
      vertex 16.8771 -3.4321 -1.49796e-07
    endloop
  endfacet
  facet normal -1.46412e-12 -1.04854e-09 -1
    outer loop
      vertex 17.036 3.22499 -1.56758e-07
      vertex 16.17 3.72499 -1.57281e-07
      vertex 16.9639 3.33286 -1.56871e-07
    endloop
  endfacet
  facet normal -3.4931e-12 -1.03659e-09 -1
    outer loop
      vertex 16.1711 -3.72492 -1.4949e-07
      vertex 16.8771 -3.4321 -1.49796e-07
      vertex 16.7796 -3.51763 -1.49707e-07
    endloop
  endfacet
  facet normal 9.88163e-10 -2.52187e-09 -1
    outer loop
      vertex 16.669 -3.5915 -1.4963e-07
      vertex 16.7796 -3.51763 -1.49707e-07
      vertex 16.7788 -3.51834 -1.49706e-07
    endloop
  endfacet
  facet normal -9.80892e-11 -1.24416e-09 -1
    outer loop
      vertex 16.9626 3.33457 -1.56873e-07
      vertex 16.9639 3.33286 -1.56871e-07
      vertex 16.17 3.72499 -1.57281e-07
    endloop
  endfacet
  facet normal 1.78334e-09 -3.71529e-09 -1
    outer loop
      vertex 16.669 -3.5915 -1.4963e-07
      vertex 16.7788 -3.51834 -1.49706e-07
      vertex 16.67 -3.59102 -1.4963e-07
    endloop
  endfacet
  facet normal 6.25e-10 -6.94444e-10 -1
    outer loop
      vertex 16.9639 3.33286 -1.56871e-07
      vertex 16.9626 3.33457 -1.56873e-07
      vertex 16.9633 3.33376 -1.56872e-07
    endloop
  endfacet
  facet normal -3.10848e-12 -1.03772e-09 -1
    outer loop
      vertex 16.7796 -3.51763 -1.49707e-07
      vertex 16.669 -3.5915 -1.4963e-07
      vertex 16.1711 -3.72492 -1.4949e-07
    endloop
  endfacet
  facet normal -1.9321e-12 -1.04211e-09 -1
    outer loop
      vertex 16.1711 -3.72492 -1.4949e-07
      vertex 16.669 -3.5915 -1.4963e-07
      vertex 16.5527 -3.64886 -1.4957e-07
    endloop
  endfacet
  facet normal -6.967e-13 -1.04644e-09 -1
    outer loop
      vertex 16.9626 3.33457 -1.56873e-07
      vertex 16.17 3.72499 -1.57281e-07
      vertex 16.8771 3.4321 -1.56975e-07
    endloop
  endfacet
  facet normal 1.498e-12 -1.05932e-09 -1
    outer loop
      vertex 16.1711 -3.72492 -1.4949e-07
      vertex 16.5527 -3.64886 -1.4957e-07
      vertex 16.4298 -3.69057 -1.49526e-07
    endloop
  endfacet
  facet normal -2.5e-09 7.14286e-09 -1
    outer loop
      vertex 16.4278 -3.69113 -1.49525e-07
      vertex 16.4298 -3.69057 -1.49526e-07
      vertex 16.4288 -3.69092 -1.49526e-07
    endloop
  endfacet
  facet normal 0 -1.046e-09 -1
    outer loop
      vertex 17.17 -2.72499 -1.50536e-07
      vertex 16.17 -3.72499 -1.4949e-07
      vertex 15.27 -3.72499 -1.4949e-07
    endloop
  endfacet
  facet normal 1.86289e-10 -2.45103e-09 -1
    outer loop
      vertex 16.1711 -3.72492 -1.4949e-07
      vertex 16.4298 -3.69057 -1.49526e-07
      vertex 16.4278 -3.69113 -1.49525e-07
    endloop
  endfacet
  facet normal -3.17367e-12 -1.0117e-09 -1
    outer loop
      vertex 16.1711 -3.72492 -1.4949e-07
      vertex 16.4278 -3.69113 -1.49525e-07
      vertex 16.3005 -3.71643 -1.49499e-07
    endloop
  endfacet
  facet normal 7.10874e-11 -1.11709e-09 -1
    outer loop
      vertex 17.17 -2.72499 -1.50536e-07
      vertex 16.1711 -3.72492 -1.4949e-07
      vertex 16.17 -3.72499 -1.4949e-07
    endloop
  endfacet
  facet normal 9.11485e-13 -1.04256e-09 -1
    outer loop
      vertex 16.8771 3.4321 -1.56975e-07
      vertex 16.17 3.72499 -1.57281e-07
      vertex 16.7788 3.51834 -1.57065e-07
    endloop
  endfacet
  facet normal -4.10282e-12 -1.05846e-09 -1
    outer loop
      vertex 16.5527 3.64887 -1.57202e-07
      vertex 16.17 3.72499 -1.57281e-07
      vertex 16.4288 3.69092 -1.57246e-07
    endloop
  endfacet
  facet normal 3.15133e-12 -1.00336e-09 -1
    outer loop
      vertex 16.4288 3.69092 -1.57246e-07
      vertex 16.17 3.72499 -1.57281e-07
      vertex 16.3005 3.71643 -1.57272e-07
    endloop
  endfacet
  facet normal -2.99576e-13 -1.04613e-09 -1
    outer loop
      vertex 16.7788 3.51834 -1.57065e-07
      vertex 16.17 3.72499 -1.57281e-07
      vertex 16.67 3.59102 -1.57141e-07
    endloop
  endfacet
  facet normal -5.53885e-12 -1.06568e-09 -1
    outer loop
      vertex 16.67 3.59102 -1.57141e-07
      vertex 16.17 3.72499 -1.57281e-07
      vertex 16.5527 3.64887 -1.57202e-07
    endloop
  endfacet
  facet normal 0 -1.04588e-09 -1
    outer loop
      vertex 15.27 3.72499 -1.57281e-07
      vertex 13.27 6.2597 -1.59932e-07
      vertex 15.27 6.2597 -1.59932e-07
    endloop
  endfacet
  facet normal 1 0 0
    outer loop
      vertex -13.27 1.7887 5.26638
      vertex -13.27 6.2597 -1.59932e-07
      vertex -13.27 6.76098 4.74061
    endloop
  endfacet
  facet normal 1 0 0
    outer loop
      vertex -13.27 6.2597 -1.59932e-07
      vertex -13.27 1.7887 5.26638
      vertex -13.27 1.23183 -1.54674e-07
    endloop
  endfacet
  facet normal -1 0 0
    outer loop
      vertex 13.27 6.2597 -1.59932e-07
      vertex 13.27 1.7887 5.26638
      vertex 13.27 6.76098 4.74061
    endloop
  endfacet
  facet normal -1 0 -0
    outer loop
      vertex 13.27 1.7887 5.26638
      vertex 13.27 6.2597 -1.59932e-07
      vertex 13.27 1.23183 -1.54674e-07
    endloop
  endfacet
  facet normal 0 0.994456 -0.105155
    outer loop
      vertex 9.51999 -2.53908 -1.5073e-07
      vertex -9.51999 -1.94051 5.66071
      vertex 9.51999 -1.94051 5.66071
    endloop
  endfacet
  facet normal 0 0.994456 -0.105155
    outer loop
      vertex -9.51999 -1.94051 5.66071
      vertex 9.51999 -2.53908 -1.5073e-07
      vertex -9.51999 -2.53908 -1.5073e-07
    endloop
  endfacet
  facet normal -0.946914 0.319705 -0.0338056
    outer loop
      vertex 13.1422 0.255853 -1.53653e-07
      vertex 12.9845 0.361595 5.41728
      vertex 13.1422 0.823513 5.36844
    endloop
  endfacet
  facet normal -0.946914 0.319705 -0.0338056
    outer loop
      vertex 12.9845 0.361595 5.41728
      vertex 13.1422 0.255853 -1.53653e-07
      vertex 12.9845 -0.211229 -1.53165e-07
    endloop
  endfacet
  facet normal 0.751772 0.655767 -0.0693411
    outer loop
      vertex -12.1716 -0.848258 5.54521
      vertex -12.4951 -1.06375 -1.52273e-07
      vertex -12.4951 -0.481498 5.50643
    endloop
  endfacet
  facet normal 0.751771 0.655768 -0.0693411
    outer loop
      vertex -12.4951 -1.06375 -1.52273e-07
      vertex -12.1716 -0.848258 5.54521
      vertex -12.1716 -1.43461 -1.51885e-07
    endloop
  endfacet
  facet normal 0.980784 0.194017 -0.0205154
    outer loop
      vertex -13.1422 0.823513 5.36844
      vertex -13.2379 0.73963 -1.54159e-07
      vertex -13.2379 1.30194 5.31785
    endloop
  endfacet
  facet normal 0.980784 0.194017 -0.0205154
    outer loop
      vertex -13.2379 0.73963 -1.54159e-07
      vertex -13.1422 0.823513 5.36844
      vertex -13.1422 0.255853 -1.53653e-07
    endloop
  endfacet
  facet normal -0.980784 0.194017 -0.0205154
    outer loop
      vertex 13.2379 0.73963 -1.54159e-07
      vertex 13.1422 0.823513 5.36844
      vertex 13.2379 1.30194 5.31785
    endloop
  endfacet
  facet normal -0.980784 0.194017 -0.0205154
    outer loop
      vertex 13.1422 0.823513 5.36844
      vertex 13.2379 0.73963 -1.54159e-07
      vertex 13.1422 0.255853 -1.53653e-07
    endloop
  endfacet
  facet normal 0.321479 0.941667 -0.0995731
    outer loop
      vertex -10.4906 -2.41059 -1.50865e-07
      vertex -10.955 -1.65665 5.63069
      vertex -10.4906 -1.81344 5.64727
    endloop
  endfacet
  facet normal 0.321491 0.941663 -0.0995716
    outer loop
      vertex -10.955 -1.65665 5.63069
      vertex -10.4906 -2.41059 -1.50865e-07
      vertex -10.955 -2.25204 -1.5103e-07
    endloop
  endfacet
  facet normal -0.0654119 0.992326 -0.10493
    outer loop
      vertex 10.0095 -1.9086 5.65733
      vertex 9.51999 -2.53908 -1.5073e-07
      vertex 9.51999 -1.94051 5.66071
    endloop
  endfacet
  facet normal -0.0654172 0.992326 -0.104929
    outer loop
      vertex 9.51999 -2.53908 -1.5073e-07
      vertex 10.0095 -1.9086 5.65733
      vertex 10.0095 -2.50681 -1.50764e-07
    endloop
  endfacet
  facet normal -0.195078 0.97535 -0.103134
    outer loop
      vertex 10.4906 -1.81344 5.64727
      vertex 10.0095 -2.50681 -1.50764e-07
      vertex 10.0095 -1.9086 5.65733
    endloop
  endfacet
  facet normal -0.19507 0.975352 -0.103135
    outer loop
      vertex 10.0095 -2.50681 -1.50764e-07
      vertex 10.4906 -1.81344 5.64727
      vertex 10.4906 -2.41059 -1.50865e-07
    endloop
  endfacet
  facet normal -0.896917 0.439747 -0.0464989
    outer loop
      vertex 12.9845 -0.211229 -1.53165e-07
      vertex 12.7676 -0.0759069 5.46354
      vertex 12.9845 0.361595 5.41728
    endloop
  endfacet
  facet normal -0.896917 0.439747 -0.0464989
    outer loop
      vertex 12.7676 -0.0759069 5.46354
      vertex 12.9845 -0.211229 -1.53165e-07
      vertex 12.7676 -0.653623 -1.52702e-07
    endloop
  endfacet
  facet normal -0.321479 0.941667 -0.0995731
    outer loop
      vertex 10.955 -1.65665 5.63069
      vertex 10.4906 -2.41059 -1.50865e-07
      vertex 10.4906 -1.81344 5.64727
    endloop
  endfacet
  facet normal -0.321491 0.941663 -0.0995716
    outer loop
      vertex 10.4906 -2.41059 -1.50865e-07
      vertex 10.955 -1.65665 5.63069
      vertex 10.955 -2.25204 -1.5103e-07
    endloop
  endfacet
  facet normal -0.751772 0.655767 -0.0693411
    outer loop
      vertex 12.4951 -1.06375 -1.52273e-07
      vertex 12.1716 -0.848258 5.54521
      vertex 12.4951 -0.481498 5.50643
    endloop
  endfacet
  facet normal -0.751771 0.655768 -0.0693411
    outer loop
      vertex 12.1716 -0.848258 5.54521
      vertex 12.4951 -1.06375 -1.52273e-07
      vertex 12.1716 -1.43461 -1.51885e-07
    endloop
  endfacet
  facet normal 0.896917 0.439747 -0.0464989
    outer loop
      vertex -12.7676 -0.0759069 5.46354
      vertex -12.9845 -0.211229 -1.53165e-07
      vertex -12.9845 0.361595 5.41728
    endloop
  endfacet
  facet normal 0.896917 0.439747 -0.0464989
    outer loop
      vertex -12.9845 -0.211229 -1.53165e-07
      vertex -12.7676 -0.0759069 5.46354
      vertex -12.7676 -0.653623 -1.52702e-07
    endloop
  endfacet
  facet normal 0.946914 0.319705 -0.0338056
    outer loop
      vertex -12.9845 0.361595 5.41728
      vertex -13.1422 0.255853 -1.53653e-07
      vertex -13.1422 0.823513 5.36844
    endloop
  endfacet
  facet normal 0.946914 0.319705 -0.0338056
    outer loop
      vertex -13.1422 0.255853 -1.53653e-07
      vertex -12.9845 0.361595 5.41728
      vertex -12.9845 -0.211229 -1.53165e-07
    endloop
  endfacet
  facet normal 0.997857 0.0650773 -0.00688131
    outer loop
      vertex -13.2379 1.30194 5.31785
      vertex -13.27 1.23183 -1.54674e-07
      vertex -13.27 1.7887 5.26638
    endloop
  endfacet
  facet normal 0.997856 0.0650776 -0.00688131
    outer loop
      vertex -13.27 1.23183 -1.54674e-07
      vertex -13.2379 1.30194 5.31785
      vertex -13.2379 0.73963 -1.54159e-07
    endloop
  endfacet
  facet normal -0.997857 0.0650773 -0.00688131
    outer loop
      vertex 13.27 1.23183 -1.54674e-07
      vertex 13.2379 1.30194 5.31785
      vertex 13.27 1.7887 5.26638
    endloop
  endfacet
  facet normal -0.997856 0.0650776 -0.00688131
    outer loop
      vertex 13.2379 1.30194 5.31785
      vertex 13.27 1.23183 -1.54674e-07
      vertex 13.2379 0.73963 -1.54159e-07
    endloop
  endfacet
  facet normal 0.195078 0.97535 -0.103134
    outer loop
      vertex -10.0095 -2.50681 -1.50764e-07
      vertex -10.4906 -1.81344 5.64727
      vertex -10.0095 -1.9086 5.65733
    endloop
  endfacet
  facet normal 0.19507 0.975352 -0.103135
    outer loop
      vertex -10.4906 -1.81344 5.64727
      vertex -10.0095 -2.50681 -1.50764e-07
      vertex -10.4906 -2.41059 -1.50865e-07
    endloop
  endfacet
  facet normal -0.659341 0.747675 -0.0790596
    outer loop
      vertex 12.1716 -0.848258 5.54521
      vertex 11.8028 -1.75984 -1.51545e-07
      vertex 11.8028 -1.16989 5.57922
    endloop
  endfacet
  facet normal -0.659343 0.747674 -0.0790592
    outer loop
      vertex 11.8028 -1.75984 -1.51545e-07
      vertex 12.1716 -0.848258 5.54521
      vertex 12.1716 -1.43461 -1.51885e-07
    endloop
  endfacet
  facet normal -0.442253 0.891918 -0.0943115
    outer loop
      vertex 11.395 -1.44089 5.60788
      vertex 10.955 -2.25204 -1.5103e-07
      vertex 10.955 -1.65665 5.63069
    endloop
  endfacet
  facet normal -0.442266 0.891911 -0.0943096
    outer loop
      vertex 10.955 -2.25204 -1.5103e-07
      vertex 11.395 -1.44089 5.60788
      vertex 11.395 -2.03386 -1.51259e-07
    endloop
  endfacet
  facet normal -0.831487 0.552464 -0.0584177
    outer loop
      vertex 12.7676 -0.653623 -1.52702e-07
      vertex 12.4951 -0.481498 5.50643
      vertex 12.7676 -0.0759069 5.46354
    endloop
  endfacet
  facet normal -0.831487 0.552464 -0.0584177
    outer loop
      vertex 12.4951 -0.481498 5.50643
      vertex 12.7676 -0.653623 -1.52702e-07
      vertex 12.4951 -1.06375 -1.52273e-07
    endloop
  endfacet
  facet normal 0.831487 0.552464 -0.0584177
    outer loop
      vertex -12.4951 -0.481498 5.50643
      vertex -12.7676 -0.653623 -1.52702e-07
      vertex -12.7676 -0.0759069 5.46354
    endloop
  endfacet
  facet normal 0.831487 0.552464 -0.0584177
    outer loop
      vertex -12.7676 -0.653623 -1.52702e-07
      vertex -12.4951 -0.481498 5.50643
      vertex -12.4951 -1.06375 -1.52273e-07
    endloop
  endfacet
  facet normal 0.0654119 0.992326 -0.10493
    outer loop
      vertex -9.51999 -2.53908 -1.5073e-07
      vertex -10.0095 -1.9086 5.65733
      vertex -9.51999 -1.94051 5.66071
    endloop
  endfacet
  facet normal 0.0654172 0.992326 -0.104929
    outer loop
      vertex -10.0095 -1.9086 5.65733
      vertex -9.51999 -2.53908 -1.5073e-07
      vertex -10.0095 -2.50681 -1.50764e-07
    endloop
  endfacet
  facet normal 0.55561 0.826834 -0.0874283
    outer loop
      vertex -11.395 -2.03386 -1.51259e-07
      vertex -11.8028 -1.16989 5.57922
      vertex -11.395 -1.44089 5.60788
    endloop
  endfacet
  facet normal 0.555595 0.826843 -0.0874309
    outer loop
      vertex -11.8028 -1.16989 5.57922
      vertex -11.395 -2.03386 -1.51259e-07
      vertex -11.8028 -1.75984 -1.51545e-07
    endloop
  endfacet
  facet normal 0.659341 0.747675 -0.0790596
    outer loop
      vertex -11.8028 -1.75984 -1.51545e-07
      vertex -12.1716 -0.848258 5.54521
      vertex -11.8028 -1.16989 5.57922
    endloop
  endfacet
  facet normal 0.659343 0.747674 -0.0790592
    outer loop
      vertex -12.1716 -0.848258 5.54521
      vertex -11.8028 -1.75984 -1.51545e-07
      vertex -12.1716 -1.43461 -1.51885e-07
    endloop
  endfacet
  facet normal 0.442253 0.891918 -0.0943115
    outer loop
      vertex -10.955 -2.25204 -1.5103e-07
      vertex -11.395 -1.44089 5.60788
      vertex -10.955 -1.65665 5.63069
    endloop
  endfacet
  facet normal 0.442266 0.891911 -0.0943096
    outer loop
      vertex -11.395 -1.44089 5.60788
      vertex -10.955 -2.25204 -1.5103e-07
      vertex -11.395 -2.03386 -1.51259e-07
    endloop
  endfacet
  facet normal -0.55561 0.826834 -0.0874283
    outer loop
      vertex 11.8028 -1.16989 5.57922
      vertex 11.395 -2.03386 -1.51259e-07
      vertex 11.395 -1.44089 5.60788
    endloop
  endfacet
  facet normal -0.555595 0.826843 -0.0874309
    outer loop
      vertex 11.395 -2.03386 -1.51259e-07
      vertex 11.8028 -1.16989 5.57922
      vertex 11.8028 -1.75984 -1.51545e-07
    endloop
  endfacet
  facet normal 0.711485 0.0738917 0.698805
    outer loop
      vertex -14.07 1.87339 6.07194
      vertex -13.27 6.76098 4.74061
      vertex -14.07 6.84615 5.54612
    endloop
  endfacet
  facet normal 0.711485 0.0738919 0.698806
    outer loop
      vertex -13.27 6.76098 4.74061
      vertex -14.07 1.87339 6.07194
      vertex -13.27 1.7887 5.26638
    endloop
  endfacet
  facet normal -0.711485 0.0738917 0.698805
    outer loop
      vertex 13.27 6.76098 4.74061
      vertex 14.07 1.87339 6.07194
      vertex 14.07 6.84615 5.54612
    endloop
  endfacet
  facet normal -0.711485 0.0738919 0.698806
    outer loop
      vertex 14.07 1.87339 6.07194
      vertex 13.27 6.76098 4.74061
      vertex 13.27 1.7887 5.26638
    endloop
  endfacet
  facet normal 0.405201 0.859319 0.312063
    outer loop
      vertex -11.395 -1.44089 5.60788
      vertex -11.755 -1.57196 6.43625
      vertex -10.955 -1.65665 5.63069
    endloop
  endfacet
  facet normal 0.405201 0.859319 0.312063
    outer loop
      vertex -11.755 -1.57196 6.43625
      vertex -11.395 -1.44089 5.60788
      vertex -12.195 -1.3562 6.41344
    endloop
  endfacet
  facet normal 0.306358 0.929246 0.206512
    outer loop
      vertex -10.955 -1.65665 5.63069
      vertex -11.2905 -1.72875 6.45283
      vertex -10.4906 -1.81344 5.64727
    endloop
  endfacet
  facet normal 0.3063 0.929269 0.206491
    outer loop
      vertex -11.2905 -1.72875 6.45283
      vertex -10.955 -1.65665 5.63069
      vertex -11.755 -1.57196 6.43625
    endloop
  endfacet
  facet normal 0.67129 0.39886 0.624724
    outer loop
      vertex -13.5676 0.00878216 6.2691
      vertex -12.9845 0.361595 5.41728
      vertex -13.7845 0.446285 6.22284
    endloop
  endfacet
  facet normal 0.67129 0.398861 0.624724
    outer loop
      vertex -12.9845 0.361595 5.41728
      vertex -13.5676 0.00878216 6.2691
      vertex -12.7676 -0.0759069 5.46354
    endloop
  endfacet
  facet normal 0.710698 0.120163 0.693159
    outer loop
      vertex -14.0379 1.38663 6.12341
      vertex -13.27 1.7887 5.26638
      vertex -14.07 1.87339 6.07194
    endloop
  endfacet
  facet normal 0.710698 0.120163 0.693159
    outer loop
      vertex -13.27 1.7887 5.26638
      vertex -14.0379 1.38663 6.12341
      vertex -13.2379 1.30194 5.31785
    endloop
  endfacet
  facet normal 0.691528 0.305309 0.654657
    outer loop
      vertex -13.7845 0.446285 6.22284
      vertex -13.1422 0.823513 5.36844
      vertex -13.9422 0.908202 6.174
    endloop
  endfacet
  facet normal 0.691528 0.305308 0.654657
    outer loop
      vertex -13.1422 0.823513 5.36844
      vertex -13.7845 0.446285 6.22284
      vertex -12.9845 0.361595 5.41728
    endloop
  endfacet
  facet normal -0.710698 0.120163 0.693159
    outer loop
      vertex 13.27 1.7887 5.26638
      vertex 14.0379 1.38663 6.12341
      vertex 14.07 1.87339 6.07194
    endloop
  endfacet
  facet normal -0.710698 0.120163 0.693159
    outer loop
      vertex 14.0379 1.38663 6.12341
      vertex 13.27 1.7887 5.26638
      vertex 13.2379 1.30194 5.31785
    endloop
  endfacet
  facet normal -0.704423 0.212516 0.677219
    outer loop
      vertex 13.2379 1.30194 5.31785
      vertex 13.9422 0.908202 6.174
      vertex 14.0379 1.38663 6.12341
    endloop
  endfacet
  facet normal -0.704423 0.212517 0.677219
    outer loop
      vertex 13.9422 0.908202 6.174
      vertex 13.2379 1.30194 5.31785
      vertex 13.1422 0.823513 5.36844
    endloop
  endfacet
  facet normal -0.691528 0.305309 0.654657
    outer loop
      vertex 13.1422 0.823513 5.36844
      vertex 13.7845 0.446285 6.22284
      vertex 13.9422 0.908202 6.174
    endloop
  endfacet
  facet normal -0.691528 0.305308 0.654657
    outer loop
      vertex 13.7845 0.446285 6.22284
      vertex 13.1422 0.823513 5.36844
      vertex 12.9845 0.361595 5.41728
    endloop
  endfacet
  facet normal 0.603472 0.589111 0.537373
    outer loop
      vertex -12.9716 -0.763569 6.35077
      vertex -12.4951 -0.481498 5.50643
      vertex -13.2951 -0.396809 6.31199
    endloop
  endfacet
  facet normal 0.603472 0.589111 0.537373
    outer loop
      vertex -12.4951 -0.481498 5.50643
      vertex -12.9716 -0.763569 6.35077
      vertex -12.1716 -0.848258 5.54521
    endloop
  endfacet
  facet normal 0.486985 0.77534 0.402111
    outer loop
      vertex -11.8028 -1.16989 5.57922
      vertex -12.195 -1.3562 6.41344
      vertex -11.395 -1.44089 5.60788
    endloop
  endfacet
  facet normal 0.486985 0.77534 0.402111
    outer loop
      vertex -12.195 -1.3562 6.41344
      vertex -11.8028 -1.16989 5.57922
      vertex -12.6028 -1.0852 6.38478
    endloop
  endfacet
  facet normal -0.0652871 0.997065 -0.0399948
    outer loop
      vertex 10.0095 -1.9086 5.65733
      vertex 10.32 -1.85582 6.46627
      vertex 10.8094 -1.82391 6.46289
    endloop
  endfacet
  facet normal -0.0652725 0.997065 -0.0400005
    outer loop
      vertex 10.32 -1.85582 6.46627
      vertex 10.0095 -1.9086 5.65733
      vertex 9.51999 -1.94051 5.66071
    endloop
  endfacet
  facet normal -0.191535 0.977585 0.0874142
    outer loop
      vertex 10.4906 -1.81344 5.64727
      vertex 10.8094 -1.82391 6.46289
      vertex 11.2905 -1.72875 6.45283
    endloop
  endfacet
  facet normal -0.191535 0.977585 0.0874142
    outer loop
      vertex 10.8094 -1.82391 6.46289
      vertex 10.4906 -1.81344 5.64727
      vertex 10.0095 -1.9086 5.65733
    endloop
  endfacet
  facet normal -0.552401 0.683821 0.476698
    outer loop
      vertex 12.1716 -0.848258 5.54521
      vertex 12.6028 -1.0852 6.38478
      vertex 12.9716 -0.763569 6.35077
    endloop
  endfacet
  facet normal -0.552402 0.68382 0.476698
    outer loop
      vertex 12.6028 -1.0852 6.38478
      vertex 12.1716 -0.848258 5.54521
      vertex 11.8028 -1.16989 5.57922
    endloop
  endfacet
  facet normal 0.64247 0.493632 0.58614
    outer loop
      vertex -13.2951 -0.396809 6.31199
      vertex -12.7676 -0.0759069 5.46354
      vertex -13.5676 0.00878216 6.2691
    endloop
  endfacet
  facet normal 0.64247 0.493632 0.58614
    outer loop
      vertex -12.7676 -0.0759069 5.46354
      vertex -13.2951 -0.396809 6.31199
      vertex -12.4951 -0.481498 5.50643
    endloop
  endfacet
  facet normal 0.704423 0.212516 0.677219
    outer loop
      vertex -13.9422 0.908202 6.174
      vertex -13.2379 1.30194 5.31785
      vertex -14.0379 1.38663 6.12341
    endloop
  endfacet
  facet normal 0.704423 0.212517 0.677219
    outer loop
      vertex -13.2379 1.30194 5.31785
      vertex -13.9422 0.908202 6.174
      vertex -13.1422 0.823513 5.36844
    endloop
  endfacet
  facet normal -0.64247 0.493632 0.58614
    outer loop
      vertex 12.7676 -0.0759069 5.46354
      vertex 13.2951 -0.396809 6.31199
      vertex 13.5676 0.00878216 6.2691
    endloop
  endfacet
  facet normal -0.64247 0.493632 0.58614
    outer loop
      vertex 13.2951 -0.396809 6.31199
      vertex 12.7676 -0.0759069 5.46354
      vertex 12.4951 -0.481498 5.50643
    endloop
  endfacet
  facet normal -0.603472 0.589111 0.537373
    outer loop
      vertex 12.4951 -0.481498 5.50643
      vertex 12.9716 -0.763569 6.35077
      vertex 13.2951 -0.396809 6.31199
    endloop
  endfacet
  facet normal -0.603472 0.589111 0.537373
    outer loop
      vertex 12.9716 -0.763569 6.35077
      vertex 12.4951 -0.481498 5.50643
      vertex 12.1716 -0.848258 5.54521
    endloop
  endfacet
  facet normal 0.552402 0.68382 0.476698
    outer loop
      vertex -12.1716 -0.848258 5.54521
      vertex -12.6028 -1.0852 6.38478
      vertex -11.8028 -1.16989 5.57922
    endloop
  endfacet
  facet normal 0.552401 0.683821 0.476698
    outer loop
      vertex -12.6028 -1.0852 6.38478
      vertex -12.1716 -0.848258 5.54521
      vertex -12.9716 -0.763569 6.35077
    endloop
  endfacet
  facet normal 0.191535 0.977585 0.0874142
    outer loop
      vertex -10.4906 -1.81344 5.64727
      vertex -10.8094 -1.82391 6.46289
      vertex -10.0095 -1.9086 5.65733
    endloop
  endfacet
  facet normal 0.191535 0.977585 0.0874142
    outer loop
      vertex -10.8094 -1.82391 6.46289
      vertex -10.4906 -1.81344 5.64727
      vertex -11.2905 -1.72875 6.45283
    endloop
  endfacet
  facet normal -0.486985 0.77534 0.402111
    outer loop
      vertex 11.8028 -1.16989 5.57922
      vertex 12.195 -1.3562 6.41344
      vertex 12.6028 -1.0852 6.38478
    endloop
  endfacet
  facet normal -0.486985 0.77534 0.402111
    outer loop
      vertex 12.195 -1.3562 6.41344
      vertex 11.8028 -1.16989 5.57922
      vertex 11.395 -1.44089 5.60788
    endloop
  endfacet
  facet normal -0.67129 0.39886 0.624724
    outer loop
      vertex 12.9845 0.361595 5.41728
      vertex 13.5676 0.00878216 6.2691
      vertex 13.7845 0.446285 6.22284
    endloop
  endfacet
  facet normal -0.67129 0.398861 0.624724
    outer loop
      vertex 13.5676 0.00878216 6.2691
      vertex 12.9845 0.361595 5.41728
      vertex 12.7676 -0.0759069 5.46354
    endloop
  endfacet
  facet normal 0.0652725 0.997065 -0.0400005
    outer loop
      vertex -10.0095 -1.9086 5.65733
      vertex -10.32 -1.85582 6.46627
      vertex -9.51999 -1.94051 5.66071
    endloop
  endfacet
  facet normal 0.0652871 0.997065 -0.0399948
    outer loop
      vertex -10.32 -1.85582 6.46627
      vertex -10.0095 -1.9086 5.65733
      vertex -10.8094 -1.82391 6.46289
    endloop
  endfacet
  facet normal 0 0.994519 -0.104556
    outer loop
      vertex 9.51999 -1.94051 5.66071
      vertex -10.32 -1.85582 6.46627
      vertex 10.32 -1.85582 6.46627
    endloop
  endfacet
  facet normal 0 0.994519 -0.104556
    outer loop
      vertex -10.32 -1.85582 6.46627
      vertex 9.51999 -1.94051 5.66071
      vertex -9.51999 -1.94051 5.66071
    endloop
  endfacet
  facet normal -0.3063 0.929269 0.206491
    outer loop
      vertex 10.955 -1.65665 5.63069
      vertex 11.2905 -1.72875 6.45283
      vertex 11.755 -1.57196 6.43625
    endloop
  endfacet
  facet normal -0.306358 0.929246 0.206512
    outer loop
      vertex 11.2905 -1.72875 6.45283
      vertex 10.955 -1.65665 5.63069
      vertex 10.4906 -1.81344 5.64727
    endloop
  endfacet
  facet normal -0.405201 0.859319 0.312063
    outer loop
      vertex 11.395 -1.44089 5.60788
      vertex 11.755 -1.57196 6.43625
      vertex 12.195 -1.3562 6.41344
    endloop
  endfacet
  facet normal -0.405201 0.859319 0.312063
    outer loop
      vertex 11.755 -1.57196 6.43625
      vertex 11.395 -1.44089 5.60788
      vertex 10.955 -1.65665 5.63069
    endloop
  endfacet
endsolid OpenSCAD_Model
